<mxfile host="65bd71144e">
    <diagram id="wlUvrd63uYUPT3Bc5z4r" name="Page-1">
        <mxGraphModel dx="739" dy="360" grid="0" gridSize="10" guides="1" tooltips="1" connect="1" arrows="1" fold="1" page="1" pageScale="1" pageWidth="4681" pageHeight="3300" math="1" shadow="0">
            <root>
                <mxCell id="0"/>
                <mxCell id="1" parent="0"/>
                <mxCell id="597" value="" style="rounded=0;whiteSpace=wrap;html=1;fillColor=#f5f5f5;fontColor=#333333;strokeColor=#666666;opacity=50;" parent="1" vertex="1">
                    <mxGeometry x="550" y="2420" width="230" height="140" as="geometry"/>
                </mxCell>
                <mxCell id="596" value="" style="rounded=0;whiteSpace=wrap;html=1;fillColor=#f5f5f5;fontColor=#333333;strokeColor=#666666;opacity=50;" parent="1" vertex="1">
                    <mxGeometry x="310" y="2420" width="230" height="140" as="geometry"/>
                </mxCell>
                <mxCell id="595" value="" style="rounded=0;whiteSpace=wrap;html=1;fillColor=#f5f5f5;fontColor=#333333;strokeColor=#666666;opacity=50;" parent="1" vertex="1">
                    <mxGeometry x="70" y="2420" width="230" height="140" as="geometry"/>
                </mxCell>
                <mxCell id="516" value="" style="endArrow=none;html=1;entryX=0.5;entryY=1;entryDx=0;entryDy=0;fillColor=#ffe6cc;strokeColor=#d79b00;startArrow=classic;startFill=1;endFill=0;" parent="1" edge="1">
                    <mxGeometry width="50" height="50" relative="1" as="geometry">
                        <mxPoint x="109.88" y="2470" as="sourcePoint"/>
                        <mxPoint x="109.88" y="2430" as="targetPoint"/>
                    </mxGeometry>
                </mxCell>
                <mxCell id="2" value="$$w_1$$" style="text;html=1;align=center;verticalAlign=middle;whiteSpace=wrap;rounded=0;" parent="1" vertex="1">
                    <mxGeometry x="40" y="40" width="20" height="30" as="geometry"/>
                </mxCell>
                <mxCell id="3" value="$$w_2$$" style="text;html=1;align=center;verticalAlign=middle;whiteSpace=wrap;rounded=0;" parent="1" vertex="1">
                    <mxGeometry x="60" y="40" width="20" height="30" as="geometry"/>
                </mxCell>
                <mxCell id="12" style="edgeStyle=orthogonalEdgeStyle;html=1;entryX=0.25;entryY=1;entryDx=0;entryDy=0;curved=1;endArrow=blockThin;endFill=1;" parent="1" source="4" target="5" edge="1">
                    <mxGeometry relative="1" as="geometry">
                        <Array as="points">
                            <mxPoint x="115" y="85"/>
                            <mxPoint x="137" y="85"/>
                            <mxPoint x="137" y="70"/>
                        </Array>
                    </mxGeometry>
                </mxCell>
                <mxCell id="4" value="$$w_{t-1}$$" style="text;html=1;align=center;verticalAlign=middle;whiteSpace=wrap;rounded=0;strokeColor=default;" parent="1" vertex="1">
                    <mxGeometry x="100" y="40" width="30" height="30" as="geometry"/>
                </mxCell>
                <mxCell id="11" style="edgeStyle=orthogonalEdgeStyle;html=1;entryX=0.75;entryY=1;entryDx=0;entryDy=0;curved=1;endArrow=blockThin;endFill=1;" parent="1" source="6" target="5" edge="1">
                    <mxGeometry relative="1" as="geometry">
                        <Array as="points">
                            <mxPoint x="175" y="85"/>
                            <mxPoint x="152" y="85"/>
                            <mxPoint x="152" y="70"/>
                        </Array>
                    </mxGeometry>
                </mxCell>
                <mxCell id="6" value="$$w_{t+1}$$" style="text;html=1;align=center;verticalAlign=middle;whiteSpace=wrap;rounded=0;strokeColor=default;" parent="1" vertex="1">
                    <mxGeometry x="160" y="40" width="30" height="30" as="geometry"/>
                </mxCell>
                <mxCell id="7" value="$$w_{T-1}$$" style="text;html=1;align=center;verticalAlign=middle;whiteSpace=wrap;rounded=0;" parent="1" vertex="1">
                    <mxGeometry x="210" y="40" width="30" height="30" as="geometry"/>
                </mxCell>
                <mxCell id="8" value="$$w_T$$" style="text;html=1;align=center;verticalAlign=middle;whiteSpace=wrap;rounded=0;" parent="1" vertex="1">
                    <mxGeometry x="240" y="40" width="30" height="30" as="geometry"/>
                </mxCell>
                <mxCell id="9" value="..." style="text;html=1;align=center;verticalAlign=middle;whiteSpace=wrap;rounded=0;" parent="1" vertex="1">
                    <mxGeometry x="80" y="40" width="20" height="30" as="geometry"/>
                </mxCell>
                <mxCell id="10" value="..." style="text;html=1;align=center;verticalAlign=middle;whiteSpace=wrap;rounded=0;" parent="1" vertex="1">
                    <mxGeometry x="190" y="40" width="20" height="30" as="geometry"/>
                </mxCell>
                <mxCell id="13" value="$$w_1$$" style="text;html=1;align=center;verticalAlign=middle;whiteSpace=wrap;rounded=0;" parent="1" vertex="1">
                    <mxGeometry x="40" y="120" width="20" height="30" as="geometry"/>
                </mxCell>
                <mxCell id="14" value="$$w_2$$" style="text;html=1;align=center;verticalAlign=middle;whiteSpace=wrap;rounded=0;" parent="1" vertex="1">
                    <mxGeometry x="60" y="120" width="20" height="30" as="geometry"/>
                </mxCell>
                <mxCell id="15" style="edgeStyle=orthogonalEdgeStyle;html=1;entryX=0.75;entryY=1;entryDx=0;entryDy=0;curved=1;endArrow=blockThin;endFill=1;" parent="1" source="16" target="17" edge="1">
                    <mxGeometry relative="1" as="geometry">
                        <Array as="points">
                            <mxPoint x="115" y="170"/>
                            <mxPoint x="183" y="170"/>
                            <mxPoint x="183" y="150"/>
                        </Array>
                    </mxGeometry>
                </mxCell>
                <mxCell id="16" value="$$w_{t-2}$$" style="text;html=1;align=center;verticalAlign=middle;whiteSpace=wrap;rounded=0;strokeColor=default;" parent="1" vertex="1">
                    <mxGeometry x="100" y="120" width="30" height="30" as="geometry"/>
                </mxCell>
                <mxCell id="19" value="$$w_{t+1}$$" style="text;html=1;align=center;verticalAlign=middle;whiteSpace=wrap;rounded=0;strokeColor=none;" parent="1" vertex="1">
                    <mxGeometry x="190" y="120" width="30" height="30" as="geometry"/>
                </mxCell>
                <mxCell id="20" value="$$w_{T-1}$$" style="text;html=1;align=center;verticalAlign=middle;whiteSpace=wrap;rounded=0;" parent="1" vertex="1">
                    <mxGeometry x="240" y="120" width="30" height="30" as="geometry"/>
                </mxCell>
                <mxCell id="21" value="$$w_T$$" style="text;html=1;align=center;verticalAlign=middle;whiteSpace=wrap;rounded=0;" parent="1" vertex="1">
                    <mxGeometry x="270" y="120" width="30" height="30" as="geometry"/>
                </mxCell>
                <mxCell id="22" value="..." style="text;html=1;align=center;verticalAlign=middle;whiteSpace=wrap;rounded=0;" parent="1" vertex="1">
                    <mxGeometry x="80" y="120" width="20" height="30" as="geometry"/>
                </mxCell>
                <mxCell id="23" value="..." style="text;html=1;align=center;verticalAlign=middle;whiteSpace=wrap;rounded=0;" parent="1" vertex="1">
                    <mxGeometry x="220" y="120" width="20" height="30" as="geometry"/>
                </mxCell>
                <mxCell id="26" style="edgeStyle=orthogonalEdgeStyle;html=1;entryX=0.25;entryY=1;entryDx=0;entryDy=0;curved=1;endArrow=blockThin;endFill=1;" parent="1" source="25" target="17" edge="1">
                    <mxGeometry relative="1" as="geometry">
                        <Array as="points">
                            <mxPoint x="145" y="165"/>
                            <mxPoint x="167" y="165"/>
                        </Array>
                    </mxGeometry>
                </mxCell>
                <mxCell id="25" value="$$w_{t-1}$$" style="text;html=1;align=center;verticalAlign=middle;whiteSpace=wrap;rounded=0;strokeColor=default;" parent="1" vertex="1">
                    <mxGeometry x="130" y="120" width="30" height="30" as="geometry"/>
                </mxCell>
                <mxCell id="40" style="edgeStyle=orthogonalEdgeStyle;html=1;curved=1;endSize=3;endArrow=blockThin;endFill=1;" parent="1" source="27" edge="1">
                    <mxGeometry relative="1" as="geometry">
                        <mxPoint x="184" y="231" as="targetPoint"/>
                        <Array as="points">
                            <mxPoint x="50" y="255"/>
                            <mxPoint x="184" y="255"/>
                        </Array>
                    </mxGeometry>
                </mxCell>
                <mxCell id="27" value="$$w_1$$" style="text;html=1;align=center;verticalAlign=middle;whiteSpace=wrap;rounded=0;strokeColor=default;" parent="1" vertex="1">
                    <mxGeometry x="40" y="200" width="20" height="30" as="geometry"/>
                </mxCell>
                <mxCell id="28" value="$$w_2$$" style="text;html=1;align=center;verticalAlign=middle;whiteSpace=wrap;rounded=0;strokeColor=default;" parent="1" vertex="1">
                    <mxGeometry x="60" y="200" width="20" height="30" as="geometry"/>
                </mxCell>
                <mxCell id="29" style="edgeStyle=orthogonalEdgeStyle;html=1;curved=1;endArrow=blockThin;endFill=1;endSize=3;entryX=0.416;entryY=1.033;entryDx=0;entryDy=0;entryPerimeter=0;" parent="1" source="30" target="31" edge="1">
                    <mxGeometry relative="1" as="geometry">
                        <Array as="points">
                            <mxPoint x="115" y="245"/>
                            <mxPoint x="173" y="245"/>
                        </Array>
                        <mxPoint x="170" y="240" as="targetPoint"/>
                    </mxGeometry>
                </mxCell>
                <mxCell id="30" value="$$w_{t-2}$$" style="text;html=1;align=center;verticalAlign=middle;whiteSpace=wrap;rounded=0;strokeColor=default;" parent="1" vertex="1">
                    <mxGeometry x="100" y="200" width="30" height="30" as="geometry"/>
                </mxCell>
                <mxCell id="33" value="$$w_{T-1}$$" style="text;html=1;align=center;verticalAlign=middle;whiteSpace=wrap;rounded=0;" parent="1" vertex="1">
                    <mxGeometry x="210" y="200" width="30" height="30" as="geometry"/>
                </mxCell>
                <mxCell id="34" value="$$w_T$$" style="text;html=1;align=center;verticalAlign=middle;whiteSpace=wrap;rounded=0;" parent="1" vertex="1">
                    <mxGeometry x="240" y="200" width="30" height="30" as="geometry"/>
                </mxCell>
                <mxCell id="35" value="..." style="text;html=1;align=center;verticalAlign=middle;whiteSpace=wrap;rounded=0;" parent="1" vertex="1">
                    <mxGeometry x="80" y="200" width="20" height="30" as="geometry"/>
                </mxCell>
                <mxCell id="36" value="..." style="text;html=1;align=center;verticalAlign=middle;whiteSpace=wrap;rounded=0;" parent="1" vertex="1">
                    <mxGeometry x="190" y="200" width="20" height="30" as="geometry"/>
                </mxCell>
                <mxCell id="37" style="edgeStyle=orthogonalEdgeStyle;html=1;curved=1;endArrow=blockThin;endFill=1;endSize=3;startSize=3;" parent="1" source="38" edge="1">
                    <mxGeometry relative="1" as="geometry">
                        <Array as="points">
                            <mxPoint x="145" y="240"/>
                            <mxPoint x="167" y="240"/>
                        </Array>
                        <mxPoint x="167" y="231" as="targetPoint"/>
                    </mxGeometry>
                </mxCell>
                <mxCell id="38" value="$$w_{t-1}$$" style="text;html=1;align=center;verticalAlign=middle;whiteSpace=wrap;rounded=0;strokeColor=default;" parent="1" vertex="1">
                    <mxGeometry x="130" y="200" width="30" height="30" as="geometry"/>
                </mxCell>
                <mxCell id="39" style="edgeStyle=orthogonalEdgeStyle;html=1;curved=1;endSize=3;endArrow=blockThin;endFill=1;" parent="1" source="28" edge="1">
                    <mxGeometry relative="1" as="geometry">
                        <mxPoint x="179" y="231" as="targetPoint"/>
                        <Array as="points">
                            <mxPoint x="70" y="250"/>
                            <mxPoint x="179" y="250"/>
                        </Array>
                    </mxGeometry>
                </mxCell>
                <mxCell id="31" value="$$w_{t}$$" style="text;html=1;align=center;verticalAlign=middle;whiteSpace=wrap;rounded=0;fillColor=#ffe6cc;strokeColor=#d79b00;" parent="1" vertex="1">
                    <mxGeometry x="160" y="200" width="30" height="30" as="geometry"/>
                </mxCell>
                <mxCell id="17" value="$$w_{t}$$" style="text;html=1;align=center;verticalAlign=middle;whiteSpace=wrap;rounded=0;fillColor=#ffe6cc;strokeColor=#d79b00;" parent="1" vertex="1">
                    <mxGeometry x="160" y="120" width="30" height="30" as="geometry"/>
                </mxCell>
                <mxCell id="5" value="$$w_{t}$$" style="text;html=1;align=center;verticalAlign=middle;whiteSpace=wrap;rounded=0;fillColor=#ffe6cc;strokeColor=#d79b00;" parent="1" vertex="1">
                    <mxGeometry x="130" y="40" width="30" height="30" as="geometry"/>
                </mxCell>
                <mxCell id="41" value="$$=P(w_t|w_1,...,w_{t-1})$$" style="text;html=1;align=center;verticalAlign=middle;whiteSpace=wrap;rounded=0;" parent="1" vertex="1">
                    <mxGeometry x="108" y="252" width="166" height="26" as="geometry"/>
                </mxCell>
                <mxCell id="42" value="$$w_1$$" style="text;html=1;align=center;verticalAlign=middle;whiteSpace=wrap;rounded=0;strokeColor=default;fontSize=11;" parent="1" vertex="1">
                    <mxGeometry x="40" y="320" width="20" height="30" as="geometry"/>
                </mxCell>
                <mxCell id="43" value="$$w_2$$" style="text;html=1;align=center;verticalAlign=middle;whiteSpace=wrap;rounded=0;strokeColor=default;fontSize=11;" parent="1" vertex="1">
                    <mxGeometry x="60" y="320" width="20" height="30" as="geometry"/>
                </mxCell>
                <mxCell id="44" value="$$w_4$$" style="text;html=1;align=center;verticalAlign=middle;whiteSpace=wrap;rounded=0;strokeColor=default;fontSize=11;" parent="1" vertex="1">
                    <mxGeometry x="100" y="320" width="20" height="30" as="geometry"/>
                </mxCell>
                <mxCell id="52" value="$$w_3$$" style="text;html=1;align=center;verticalAlign=middle;whiteSpace=wrap;rounded=0;strokeColor=default;fontSize=11;" parent="1" vertex="1">
                    <mxGeometry x="80" y="320" width="20" height="30" as="geometry"/>
                </mxCell>
                <mxCell id="53" value="$$w_5$$" style="text;html=1;align=center;verticalAlign=middle;whiteSpace=wrap;rounded=0;strokeColor=default;fontSize=11;" parent="1" vertex="1">
                    <mxGeometry x="120" y="320" width="20" height="30" as="geometry"/>
                </mxCell>
                <mxCell id="54" value="$$w_6$$" style="text;html=1;align=center;verticalAlign=middle;whiteSpace=wrap;rounded=0;strokeColor=default;fontSize=11;" parent="1" vertex="1">
                    <mxGeometry x="140" y="320" width="20" height="30" as="geometry"/>
                </mxCell>
                <mxCell id="55" value="$$w_7$$" style="text;html=1;align=center;verticalAlign=middle;whiteSpace=wrap;rounded=0;strokeColor=default;fontSize=11;" parent="1" vertex="1">
                    <mxGeometry x="160" y="320" width="20" height="30" as="geometry"/>
                </mxCell>
                <mxCell id="56" value="$$w_9$$" style="text;html=1;align=center;verticalAlign=middle;whiteSpace=wrap;rounded=0;strokeColor=default;fontSize=11;" parent="1" vertex="1">
                    <mxGeometry x="200" y="320" width="20" height="30" as="geometry"/>
                </mxCell>
                <mxCell id="57" value="$$w_8$$" style="text;html=1;align=center;verticalAlign=middle;whiteSpace=wrap;rounded=0;strokeColor=default;fontSize=11;" parent="1" vertex="1">
                    <mxGeometry x="180" y="320" width="20" height="30" as="geometry"/>
                </mxCell>
                <mxCell id="58" value="$$w_{10}$$" style="text;html=1;align=center;verticalAlign=middle;whiteSpace=wrap;rounded=0;strokeColor=#d79b00;fillColor=#ffe6cc;fontSize=11;" parent="1" vertex="1">
                    <mxGeometry x="220" y="320" width="20" height="30" as="geometry"/>
                </mxCell>
                <mxCell id="59" value="&lt;span style=&quot;color: rgb(0, 0, 0);&quot;&gt;$$w_{11}$$&lt;/span&gt;" style="text;html=1;align=center;verticalAlign=middle;whiteSpace=wrap;rounded=0;strokeColor=default;fontSize=11;" parent="1" vertex="1">
                    <mxGeometry x="240" y="360" width="20" height="30" as="geometry"/>
                </mxCell>
                <mxCell id="60" value="&lt;span style=&quot;color: rgb(0, 0, 0);&quot;&gt;$$w_{12}$$&lt;/span&gt;" style="text;html=1;align=center;verticalAlign=middle;whiteSpace=wrap;rounded=0;strokeColor=default;fontSize=11;" parent="1" vertex="1">
                    <mxGeometry x="260" y="360" width="20" height="30" as="geometry"/>
                </mxCell>
                <mxCell id="61" value="&lt;span style=&quot;color: rgb(0, 0, 0);&quot;&gt;$$w_{14}$$&lt;/span&gt;" style="text;html=1;align=center;verticalAlign=middle;whiteSpace=wrap;rounded=0;strokeColor=default;fontSize=11;" parent="1" vertex="1">
                    <mxGeometry x="300" y="360" width="20" height="30" as="geometry"/>
                </mxCell>
                <mxCell id="62" value="&lt;span style=&quot;color: rgb(0, 0, 0);&quot;&gt;$$w_{13}$$&lt;/span&gt;" style="text;html=1;align=center;verticalAlign=middle;whiteSpace=wrap;rounded=0;strokeColor=default;fontSize=11;" parent="1" vertex="1">
                    <mxGeometry x="280" y="360" width="20" height="30" as="geometry"/>
                </mxCell>
                <mxCell id="63" value="&lt;span style=&quot;color: rgb(0, 0, 0);&quot;&gt;$$w_{15}$$&lt;/span&gt;" style="text;html=1;align=center;verticalAlign=middle;whiteSpace=wrap;rounded=0;strokeColor=default;fontSize=11;" parent="1" vertex="1">
                    <mxGeometry x="320" y="360" width="20" height="30" as="geometry"/>
                </mxCell>
                <mxCell id="64" value="&lt;span style=&quot;color: rgb(0, 0, 0);&quot;&gt;$$w_{16}$$&lt;/span&gt;" style="text;html=1;align=center;verticalAlign=middle;whiteSpace=wrap;rounded=0;strokeColor=default;fontSize=11;" parent="1" vertex="1">
                    <mxGeometry x="340" y="360" width="20" height="30" as="geometry"/>
                </mxCell>
                <mxCell id="65" value="&lt;span style=&quot;color: rgb(0, 0, 0);&quot;&gt;$$w_{17}$$&lt;/span&gt;" style="text;html=1;align=center;verticalAlign=middle;whiteSpace=wrap;rounded=0;strokeColor=default;fontSize=11;" parent="1" vertex="1">
                    <mxGeometry x="360" y="360" width="20" height="30" as="geometry"/>
                </mxCell>
                <mxCell id="66" value="&lt;span style=&quot;color: rgb(0, 0, 0);&quot;&gt;$$w_{19}$$&lt;/span&gt;" style="text;html=1;align=center;verticalAlign=middle;whiteSpace=wrap;rounded=0;strokeColor=default;fontSize=11;" parent="1" vertex="1">
                    <mxGeometry x="400" y="360" width="20" height="30" as="geometry"/>
                </mxCell>
                <mxCell id="67" value="&lt;span style=&quot;color: rgb(0, 0, 0);&quot;&gt;$$w_{18}$$&lt;/span&gt;" style="text;html=1;align=center;verticalAlign=middle;whiteSpace=wrap;rounded=0;strokeColor=default;fontSize=11;" parent="1" vertex="1">
                    <mxGeometry x="380" y="360" width="20" height="30" as="geometry"/>
                </mxCell>
                <mxCell id="68" value="&lt;span style=&quot;color: rgb(0, 0, 0);&quot;&gt;$$w_{20}$$&lt;/span&gt;" style="text;html=1;align=center;verticalAlign=middle;whiteSpace=wrap;rounded=0;strokeColor=#d79b00;fillColor=#ffe6cc;fontSize=11;" parent="1" vertex="1">
                    <mxGeometry x="420" y="360" width="20" height="30" as="geometry"/>
                </mxCell>
                <mxCell id="69" value="$$w_1$$" style="text;html=1;align=center;verticalAlign=middle;whiteSpace=wrap;rounded=0;strokeColor=none;fontSize=11;" parent="1" vertex="1">
                    <mxGeometry x="40" y="360" width="20" height="30" as="geometry"/>
                </mxCell>
                <mxCell id="70" value="$$w_2$$" style="text;html=1;align=center;verticalAlign=middle;whiteSpace=wrap;rounded=0;strokeColor=none;fontSize=11;" parent="1" vertex="1">
                    <mxGeometry x="60" y="360" width="20" height="30" as="geometry"/>
                </mxCell>
                <mxCell id="71" value="$$w_4$$" style="text;html=1;align=center;verticalAlign=middle;whiteSpace=wrap;rounded=0;strokeColor=none;fontSize=11;" parent="1" vertex="1">
                    <mxGeometry x="100" y="360" width="20" height="30" as="geometry"/>
                </mxCell>
                <mxCell id="72" value="$$w_3$$" style="text;html=1;align=center;verticalAlign=middle;whiteSpace=wrap;rounded=0;strokeColor=none;fontSize=11;" parent="1" vertex="1">
                    <mxGeometry x="80" y="360" width="20" height="30" as="geometry"/>
                </mxCell>
                <mxCell id="73" value="$$w_5$$" style="text;html=1;align=center;verticalAlign=middle;whiteSpace=wrap;rounded=0;strokeColor=none;fontSize=11;" parent="1" vertex="1">
                    <mxGeometry x="120" y="360" width="20" height="30" as="geometry"/>
                </mxCell>
                <mxCell id="74" value="$$w_6$$" style="text;html=1;align=center;verticalAlign=middle;whiteSpace=wrap;rounded=0;strokeColor=none;fontSize=11;" parent="1" vertex="1">
                    <mxGeometry x="140" y="360" width="20" height="30" as="geometry"/>
                </mxCell>
                <mxCell id="75" value="$$w_7$$" style="text;html=1;align=center;verticalAlign=middle;whiteSpace=wrap;rounded=0;fontSize=11;" parent="1" vertex="1">
                    <mxGeometry x="160" y="360" width="20" height="30" as="geometry"/>
                </mxCell>
                <mxCell id="76" value="$$w_9$$" style="text;html=1;align=center;verticalAlign=middle;whiteSpace=wrap;rounded=0;fontSize=11;" parent="1" vertex="1">
                    <mxGeometry x="200" y="360" width="20" height="30" as="geometry"/>
                </mxCell>
                <mxCell id="77" value="$$w_8$$" style="text;html=1;align=center;verticalAlign=middle;whiteSpace=wrap;rounded=0;fontSize=11;" parent="1" vertex="1">
                    <mxGeometry x="180" y="360" width="20" height="30" as="geometry"/>
                </mxCell>
                <mxCell id="78" value="$$w_{10}$$" style="text;html=1;align=center;verticalAlign=middle;whiteSpace=wrap;rounded=0;fontSize=11;" parent="1" vertex="1">
                    <mxGeometry x="220" y="360" width="20" height="30" as="geometry"/>
                </mxCell>
                <mxCell id="79" value="上下文大小为9" style="text;html=1;align=center;verticalAlign=middle;whiteSpace=wrap;rounded=0;" parent="1" vertex="1">
                    <mxGeometry x="240" y="320" width="104" height="30" as="geometry"/>
                </mxCell>
                <mxCell id="83" style="edgeStyle=none;html=1;entryX=0.5;entryY=1;entryDx=0;entryDy=0;" parent="1" source="80" target="82" edge="1">
                    <mxGeometry relative="1" as="geometry"/>
                </mxCell>
                <mxCell id="107" value="&lt;span style=&quot;color: rgb(0, 0, 0); font-size: 12px;&quot;&gt;$$U$$&lt;/span&gt;" style="edgeLabel;html=1;align=center;verticalAlign=middle;resizable=0;points=[];labelBackgroundColor=none;" parent="83" vertex="1" connectable="0">
                    <mxGeometry x="-0.2881" y="-1" relative="1" as="geometry">
                        <mxPoint x="9" y="-6" as="offset"/>
                    </mxGeometry>
                </mxCell>
                <mxCell id="80" value="&lt;span style=&quot;color: rgb(0, 0, 0);&quot;&gt;$$x_1$$&lt;/span&gt;" style="ellipse;whiteSpace=wrap;html=1;aspect=fixed;fillColor=#dae8fc;strokeColor=#6c8ebf;" parent="1" vertex="1">
                    <mxGeometry x="170" y="630" width="40" height="40" as="geometry"/>
                </mxCell>
                <mxCell id="84" style="edgeStyle=none;html=1;entryX=0;entryY=0.5;entryDx=0;entryDy=0;" parent="1" source="81" target="82" edge="1">
                    <mxGeometry relative="1" as="geometry"/>
                </mxCell>
                <mxCell id="106" value="&lt;span style=&quot;color: rgb(0, 0, 0); font-size: 12px;&quot;&gt;$$W$$&lt;/span&gt;" style="edgeLabel;html=1;align=center;verticalAlign=middle;resizable=0;points=[];labelBackgroundColor=none;" parent="84" vertex="1" connectable="0">
                    <mxGeometry x="-0.1714" relative="1" as="geometry">
                        <mxPoint x="3" y="-10" as="offset"/>
                    </mxGeometry>
                </mxCell>
                <mxCell id="81" value="$$h_0$$" style="ellipse;whiteSpace=wrap;html=1;aspect=fixed;fillColor=#d5e8d4;strokeColor=#82b366;" parent="1" vertex="1">
                    <mxGeometry x="90" y="550" width="40" height="40" as="geometry"/>
                </mxCell>
                <mxCell id="94" style="edgeStyle=none;html=1;entryX=0;entryY=0.5;entryDx=0;entryDy=0;" parent="1" source="82" target="87" edge="1">
                    <mxGeometry relative="1" as="geometry"/>
                </mxCell>
                <mxCell id="101" value="" style="edgeStyle=none;html=1;" parent="1" source="82" target="97" edge="1">
                    <mxGeometry relative="1" as="geometry"/>
                </mxCell>
                <mxCell id="114" value="&lt;span style=&quot;font-family: monospace; font-size: 0px; text-align: start; background-color: rgb(251, 251, 251);&quot;&gt;%3CmxGraphModel%3E%3Croot%3E%3CmxCell%20id%3D%220%22%2F%3E%3CmxCell%20id%3D%221%22%20parent%3D%220%22%2F%3E%3CmxCell%20id%3D%222%22%20value%3D%22%26lt%3Bspan%20style%3D%26quot%3Bcolor%3A%20rgb(0%2C%200%2C%200)%3B%20font-size%3A%2012px%3B%26quot%3B%26gt%3B%24%24U%24%24%26lt%3B%2Fspan%26gt%3B%22%20style%3D%22edgeLabel%3Bhtml%3D1%3Balign%3Dcenter%3BverticalAlign%3Dmiddle%3Bresizable%3D0%3Bpoints%3D%5B%5D%3BlabelBackgroundColor%3Dnone%3B%22%20vertex%3D%221%22%20connectable%3D%220%22%20parent%3D%221%22%3E%3CmxGeometry%20x%3D%22150%22%20y%3D%22659.7142857142859%22%20as%3D%22geometry%22%2F%3E%3C%2FmxCell%3E%3CmxCell%20id%3D%223%22%20value%3D%22%26lt%3Bspan%20style%3D%26quot%3Bcolor%3A%20rgb(0%2C%200%2C%200)%3B%20font-size%3A%2012px%3B%26quot%3B%26gt%3B%24%24U%24%24%26lt%3B%2Fspan%26gt%3B%22%20style%3D%22edgeLabel%3Bhtml%3D1%3Balign%3Dcenter%3BverticalAlign%3Dmiddle%3Bresizable%3D0%3Bpoints%3D%5B%5D%3BlabelBackgroundColor%3Dnone%3B%22%20vertex%3D%221%22%20connectable%3D%220%22%20parent%3D%221%22%3E%3CmxGeometry%20x%3D%22230%22%20y%3D%22660.0042857142857%22%20as%3D%22geometry%22%2F%3E%3C%2FmxCell%3E%3C%2Froot%3E%3C%2FmxGraphModel%3E&lt;/span&gt;" style="edgeLabel;html=1;align=center;verticalAlign=middle;resizable=0;points=[];" parent="101" vertex="1" connectable="0">
                    <mxGeometry x="-0.5262" y="1" relative="1" as="geometry">
                        <mxPoint as="offset"/>
                    </mxGeometry>
                </mxCell>
                <mxCell id="115" value="&lt;span style=&quot;color: rgb(0, 0, 0); font-size: 12px;&quot;&gt;$$V$$&lt;/span&gt;" style="edgeLabel;html=1;align=center;verticalAlign=middle;resizable=0;points=[];labelBackgroundColor=none;" parent="101" vertex="1" connectable="0">
                    <mxGeometry x="-0.4548" y="1" relative="1" as="geometry">
                        <mxPoint x="11" y="-9" as="offset"/>
                    </mxGeometry>
                </mxCell>
                <mxCell id="82" value="&lt;span style=&quot;color: rgb(0, 0, 0);&quot;&gt;$$h_1$$&lt;/span&gt;" style="rounded=1;whiteSpace=wrap;html=1;aspect=fixed;fillColor=#d5e8d4;strokeColor=#82b366;" parent="1" vertex="1">
                    <mxGeometry x="170" y="550" width="40" height="40" as="geometry"/>
                </mxCell>
                <mxCell id="85" style="edgeStyle=none;html=1;entryX=0.5;entryY=1;entryDx=0;entryDy=0;" parent="1" source="86" target="87" edge="1">
                    <mxGeometry relative="1" as="geometry"/>
                </mxCell>
                <mxCell id="86" value="&lt;span style=&quot;color: rgb(0, 0, 0);&quot;&gt;$$x_2$$&lt;/span&gt;" style="ellipse;whiteSpace=wrap;html=1;aspect=fixed;fillColor=#dae8fc;strokeColor=#6c8ebf;" parent="1" vertex="1">
                    <mxGeometry x="250" y="630" width="40" height="40" as="geometry"/>
                </mxCell>
                <mxCell id="95" style="edgeStyle=none;html=1;entryX=0;entryY=0.5;entryDx=0;entryDy=0;" parent="1" source="87" target="90" edge="1">
                    <mxGeometry relative="1" as="geometry"/>
                </mxCell>
                <mxCell id="102" value="" style="edgeStyle=none;html=1;" parent="1" source="87" target="98" edge="1">
                    <mxGeometry relative="1" as="geometry"/>
                </mxCell>
                <mxCell id="87" value="&lt;span style=&quot;color: rgb(0, 0, 0);&quot;&gt;$$h_2$$&lt;/span&gt;" style="rounded=1;whiteSpace=wrap;html=1;aspect=fixed;fillColor=#d5e8d4;strokeColor=#82b366;" parent="1" vertex="1">
                    <mxGeometry x="250" y="550" width="40" height="40" as="geometry"/>
                </mxCell>
                <mxCell id="88" style="edgeStyle=none;html=1;entryX=0.5;entryY=1;entryDx=0;entryDy=0;" parent="1" source="89" target="90" edge="1">
                    <mxGeometry relative="1" as="geometry"/>
                </mxCell>
                <mxCell id="89" value="&lt;span style=&quot;color: rgb(0, 0, 0);&quot;&gt;$$x_3$$&lt;/span&gt;" style="ellipse;whiteSpace=wrap;html=1;aspect=fixed;fillColor=#dae8fc;strokeColor=#6c8ebf;" parent="1" vertex="1">
                    <mxGeometry x="330" y="630" width="40" height="40" as="geometry"/>
                </mxCell>
                <mxCell id="96" style="edgeStyle=none;html=1;entryX=0;entryY=0.5;entryDx=0;entryDy=0;" parent="1" source="90" target="93" edge="1">
                    <mxGeometry relative="1" as="geometry"/>
                </mxCell>
                <mxCell id="103" value="" style="edgeStyle=none;html=1;" parent="1" source="90" target="99" edge="1">
                    <mxGeometry relative="1" as="geometry"/>
                </mxCell>
                <mxCell id="90" value="&lt;span style=&quot;color: rgb(0, 0, 0);&quot;&gt;$$h_3$$&lt;/span&gt;" style="rounded=1;whiteSpace=wrap;html=1;aspect=fixed;fillColor=#d5e8d4;strokeColor=#82b366;" parent="1" vertex="1">
                    <mxGeometry x="330" y="550" width="40" height="40" as="geometry"/>
                </mxCell>
                <mxCell id="91" style="edgeStyle=none;html=1;entryX=0.5;entryY=1;entryDx=0;entryDy=0;" parent="1" source="92" target="93" edge="1">
                    <mxGeometry relative="1" as="geometry"/>
                </mxCell>
                <mxCell id="92" value="&lt;span style=&quot;color: rgb(0, 0, 0);&quot;&gt;$$x_4$$&lt;/span&gt;" style="ellipse;whiteSpace=wrap;html=1;aspect=fixed;fillColor=#dae8fc;strokeColor=#6c8ebf;" parent="1" vertex="1">
                    <mxGeometry x="410" y="630" width="40" height="40" as="geometry"/>
                </mxCell>
                <mxCell id="104" value="" style="edgeStyle=none;html=1;" parent="1" source="93" target="100" edge="1">
                    <mxGeometry relative="1" as="geometry"/>
                </mxCell>
                <mxCell id="93" value="&lt;span style=&quot;color: rgb(0, 0, 0);&quot;&gt;$$h_4$$&lt;/span&gt;" style="rounded=1;whiteSpace=wrap;html=1;aspect=fixed;fillColor=#d5e8d4;strokeColor=#82b366;" parent="1" vertex="1">
                    <mxGeometry x="410" y="550" width="40" height="40" as="geometry"/>
                </mxCell>
                <mxCell id="97" value="&lt;span style=&quot;color: rgb(0, 0, 0);&quot;&gt;$$y_1$$&lt;/span&gt;" style="ellipse;whiteSpace=wrap;html=1;aspect=fixed;fillColor=#f8cecc;strokeColor=#b85450;" parent="1" vertex="1">
                    <mxGeometry x="170" y="470" width="40" height="40" as="geometry"/>
                </mxCell>
                <mxCell id="98" value="&lt;span style=&quot;color: rgb(0, 0, 0);&quot;&gt;$$y_2$$&lt;/span&gt;" style="ellipse;whiteSpace=wrap;html=1;aspect=fixed;fillColor=#f8cecc;strokeColor=#b85450;" parent="1" vertex="1">
                    <mxGeometry x="250" y="470" width="40" height="40" as="geometry"/>
                </mxCell>
                <mxCell id="99" value="&lt;span style=&quot;color: rgb(0, 0, 0);&quot;&gt;$$y_3$$&lt;/span&gt;" style="ellipse;whiteSpace=wrap;html=1;aspect=fixed;fillColor=#f8cecc;strokeColor=#b85450;" parent="1" vertex="1">
                    <mxGeometry x="330" y="470" width="40" height="40" as="geometry"/>
                </mxCell>
                <mxCell id="100" value="&lt;span style=&quot;color: rgb(0, 0, 0);&quot;&gt;$$y_4$$&lt;/span&gt;" style="ellipse;whiteSpace=wrap;html=1;aspect=fixed;fillColor=#f8cecc;strokeColor=#b85450;" parent="1" vertex="1">
                    <mxGeometry x="410" y="470" width="40" height="40" as="geometry"/>
                </mxCell>
                <mxCell id="108" value="&lt;span style=&quot;color: rgb(0, 0, 0); font-size: 12px;&quot;&gt;$$W$$&lt;/span&gt;" style="edgeLabel;html=1;align=center;verticalAlign=middle;resizable=0;points=[];labelBackgroundColor=none;" parent="1" vertex="1" connectable="0">
                    <mxGeometry x="229.99666666666673" y="560" as="geometry"/>
                </mxCell>
                <mxCell id="109" value="&lt;span style=&quot;color: rgb(0, 0, 0); font-size: 12px;&quot;&gt;$$W$$&lt;/span&gt;" style="edgeLabel;html=1;align=center;verticalAlign=middle;resizable=0;points=[];labelBackgroundColor=none;" parent="1" vertex="1" connectable="0">
                    <mxGeometry x="309.66666666666663" y="560" as="geometry"/>
                </mxCell>
                <mxCell id="110" value="&lt;span style=&quot;color: rgb(0, 0, 0); font-size: 12px;&quot;&gt;$$W$$&lt;/span&gt;" style="edgeLabel;html=1;align=center;verticalAlign=middle;resizable=0;points=[];labelBackgroundColor=none;" parent="1" vertex="1" connectable="0">
                    <mxGeometry x="389.9966666666667" y="560" as="geometry"/>
                </mxCell>
                <mxCell id="111" value="&lt;span style=&quot;color: rgb(0, 0, 0); font-size: 12px;&quot;&gt;$$U$$&lt;/span&gt;" style="edgeLabel;html=1;align=center;verticalAlign=middle;resizable=0;points=[];labelBackgroundColor=none;" parent="1" vertex="1" connectable="0">
                    <mxGeometry x="280" y="610.0042857142857" as="geometry"/>
                </mxCell>
                <mxCell id="112" value="&lt;span style=&quot;color: rgb(0, 0, 0); font-size: 12px;&quot;&gt;$$U$$&lt;/span&gt;" style="edgeLabel;html=1;align=center;verticalAlign=middle;resizable=0;points=[];labelBackgroundColor=none;" parent="1" vertex="1" connectable="0">
                    <mxGeometry x="360" y="609.7142857142859" as="geometry"/>
                </mxCell>
                <mxCell id="113" value="&lt;span style=&quot;color: rgb(0, 0, 0); font-size: 12px;&quot;&gt;$$U$$&lt;/span&gt;" style="edgeLabel;html=1;align=center;verticalAlign=middle;resizable=0;points=[];labelBackgroundColor=none;" parent="1" vertex="1" connectable="0">
                    <mxGeometry x="440" y="610.0042857142857" as="geometry"/>
                </mxCell>
                <mxCell id="116" value="&lt;span style=&quot;color: rgb(0, 0, 0); font-size: 12px;&quot;&gt;$$V$$&lt;/span&gt;" style="edgeLabel;html=1;align=center;verticalAlign=middle;resizable=0;points=[];labelBackgroundColor=none;" parent="1" vertex="1" connectable="0">
                    <mxGeometry x="280" y="529.9976190476191" as="geometry"/>
                </mxCell>
                <mxCell id="117" value="&lt;span style=&quot;color: rgb(0, 0, 0); font-size: 12px;&quot;&gt;$$V$$&lt;/span&gt;" style="edgeLabel;html=1;align=center;verticalAlign=middle;resizable=0;points=[];labelBackgroundColor=none;" parent="1" vertex="1" connectable="0">
                    <mxGeometry x="360" y="530.027619047619" as="geometry"/>
                </mxCell>
                <mxCell id="118" value="&lt;span style=&quot;color: rgb(0, 0, 0); font-size: 12px;&quot;&gt;$$V$$&lt;/span&gt;" style="edgeLabel;html=1;align=center;verticalAlign=middle;resizable=0;points=[];labelBackgroundColor=none;" parent="1" vertex="1" connectable="0">
                    <mxGeometry x="440" y="529.9776190476191" as="geometry"/>
                </mxCell>
                <mxCell id="119" value="$$h_t=f(Ux_t+Wh_{t-1}+b)$$" style="text;html=1;align=center;verticalAlign=middle;resizable=0;points=[];autosize=1;strokeColor=none;fillColor=none;" parent="1" vertex="1">
                    <mxGeometry x="10" y="594.71" width="180" height="30" as="geometry"/>
                </mxCell>
                <mxCell id="120" value="$$y_t=f(Vh_t+c)$$" style="text;html=1;align=center;verticalAlign=middle;resizable=0;points=[];autosize=1;strokeColor=none;fillColor=none;" parent="1" vertex="1">
                    <mxGeometry x="70" y="514.98" width="120" height="30" as="geometry"/>
                </mxCell>
                <mxCell id="121" style="edgeStyle=none;html=1;entryX=0.5;entryY=1;entryDx=0;entryDy=0;" parent="1" source="123" target="131" edge="1">
                    <mxGeometry relative="1" as="geometry"/>
                </mxCell>
                <mxCell id="122" value="&lt;span style=&quot;color: rgb(0, 0, 0); font-size: 12px;&quot;&gt;$$U$$&lt;/span&gt;" style="edgeLabel;html=1;align=center;verticalAlign=middle;resizable=0;points=[];labelBackgroundColor=none;" parent="121" vertex="1" connectable="0">
                    <mxGeometry x="-0.2881" y="-1" relative="1" as="geometry">
                        <mxPoint x="9" y="-6" as="offset"/>
                    </mxGeometry>
                </mxCell>
                <mxCell id="123" value="&lt;span style=&quot;color: rgb(0, 0, 0);&quot;&gt;$$x_1$$&lt;/span&gt;" style="ellipse;whiteSpace=wrap;html=1;aspect=fixed;fillColor=#dae8fc;strokeColor=#6c8ebf;" parent="1" vertex="1">
                    <mxGeometry x="170" y="880" width="40" height="40" as="geometry"/>
                </mxCell>
                <mxCell id="124" style="edgeStyle=none;html=1;entryX=0;entryY=0.5;entryDx=0;entryDy=0;" parent="1" source="126" target="131" edge="1">
                    <mxGeometry relative="1" as="geometry"/>
                </mxCell>
                <mxCell id="125" value="&lt;span style=&quot;color: rgb(0, 0, 0); font-size: 12px;&quot;&gt;$$W$$&lt;/span&gt;" style="edgeLabel;html=1;align=center;verticalAlign=middle;resizable=0;points=[];labelBackgroundColor=none;" parent="124" vertex="1" connectable="0">
                    <mxGeometry x="-0.1714" relative="1" as="geometry">
                        <mxPoint x="3" y="-10" as="offset"/>
                    </mxGeometry>
                </mxCell>
                <mxCell id="126" value="$$h_0$$" style="ellipse;whiteSpace=wrap;html=1;aspect=fixed;fillColor=#d5e8d4;strokeColor=#82b366;" parent="1" vertex="1">
                    <mxGeometry x="90" y="800" width="40" height="40" as="geometry"/>
                </mxCell>
                <mxCell id="127" style="edgeStyle=none;html=1;entryX=0;entryY=0.5;entryDx=0;entryDy=0;" parent="1" source="131" target="136" edge="1">
                    <mxGeometry relative="1" as="geometry"/>
                </mxCell>
                <mxCell id="131" value="&lt;span style=&quot;color: rgb(0, 0, 0);&quot;&gt;$$h_1$$&lt;/span&gt;" style="rounded=1;whiteSpace=wrap;html=1;aspect=fixed;fillColor=#d5e8d4;strokeColor=#82b366;" parent="1" vertex="1">
                    <mxGeometry x="170" y="800" width="40" height="40" as="geometry"/>
                </mxCell>
                <mxCell id="132" style="edgeStyle=none;html=1;entryX=0.5;entryY=1;entryDx=0;entryDy=0;" parent="1" source="133" target="136" edge="1">
                    <mxGeometry relative="1" as="geometry"/>
                </mxCell>
                <mxCell id="133" value="&lt;span style=&quot;color: rgb(0, 0, 0);&quot;&gt;$$x_2$$&lt;/span&gt;" style="ellipse;whiteSpace=wrap;html=1;aspect=fixed;fillColor=#dae8fc;strokeColor=#6c8ebf;" parent="1" vertex="1">
                    <mxGeometry x="250" y="880" width="40" height="40" as="geometry"/>
                </mxCell>
                <mxCell id="134" style="edgeStyle=none;html=1;entryX=0;entryY=0.5;entryDx=0;entryDy=0;" parent="1" source="136" target="141" edge="1">
                    <mxGeometry relative="1" as="geometry"/>
                </mxCell>
                <mxCell id="136" value="&lt;span style=&quot;color: rgb(0, 0, 0);&quot;&gt;$$h_2$$&lt;/span&gt;" style="rounded=1;whiteSpace=wrap;html=1;aspect=fixed;fillColor=#d5e8d4;strokeColor=#82b366;" parent="1" vertex="1">
                    <mxGeometry x="250" y="800" width="40" height="40" as="geometry"/>
                </mxCell>
                <mxCell id="137" style="edgeStyle=none;html=1;entryX=0.5;entryY=1;entryDx=0;entryDy=0;" parent="1" source="138" target="141" edge="1">
                    <mxGeometry relative="1" as="geometry"/>
                </mxCell>
                <mxCell id="138" value="&lt;span style=&quot;color: rgb(0, 0, 0);&quot;&gt;$$x_3$$&lt;/span&gt;" style="ellipse;whiteSpace=wrap;html=1;aspect=fixed;fillColor=#dae8fc;strokeColor=#6c8ebf;" parent="1" vertex="1">
                    <mxGeometry x="330" y="880" width="40" height="40" as="geometry"/>
                </mxCell>
                <mxCell id="139" style="edgeStyle=none;html=1;entryX=0;entryY=0.5;entryDx=0;entryDy=0;" parent="1" source="141" target="145" edge="1">
                    <mxGeometry relative="1" as="geometry"/>
                </mxCell>
                <mxCell id="141" value="&lt;span style=&quot;color: rgb(0, 0, 0);&quot;&gt;$$h_3$$&lt;/span&gt;" style="rounded=1;whiteSpace=wrap;html=1;aspect=fixed;fillColor=#d5e8d4;strokeColor=#82b366;" parent="1" vertex="1">
                    <mxGeometry x="330" y="800" width="40" height="40" as="geometry"/>
                </mxCell>
                <mxCell id="142" style="edgeStyle=none;html=1;entryX=0.5;entryY=1;entryDx=0;entryDy=0;" parent="1" source="143" target="145" edge="1">
                    <mxGeometry relative="1" as="geometry"/>
                </mxCell>
                <mxCell id="143" value="&lt;span style=&quot;color: rgb(0, 0, 0);&quot;&gt;$$x_4$$&lt;/span&gt;" style="ellipse;whiteSpace=wrap;html=1;aspect=fixed;fillColor=#dae8fc;strokeColor=#6c8ebf;" parent="1" vertex="1">
                    <mxGeometry x="410" y="880" width="40" height="40" as="geometry"/>
                </mxCell>
                <mxCell id="144" value="" style="edgeStyle=none;html=1;" parent="1" source="145" target="149" edge="1">
                    <mxGeometry relative="1" as="geometry"/>
                </mxCell>
                <mxCell id="145" value="&lt;span style=&quot;color: rgb(0, 0, 0);&quot;&gt;$$h_4$$&lt;/span&gt;" style="rounded=1;whiteSpace=wrap;html=1;aspect=fixed;fillColor=#d5e8d4;strokeColor=#82b366;" parent="1" vertex="1">
                    <mxGeometry x="410" y="800" width="40" height="40" as="geometry"/>
                </mxCell>
                <mxCell id="149" value="&lt;span style=&quot;color: rgb(0, 0, 0);&quot;&gt;$$y$$&lt;/span&gt;" style="ellipse;whiteSpace=wrap;html=1;aspect=fixed;fillColor=#f8cecc;strokeColor=#b85450;" parent="1" vertex="1">
                    <mxGeometry x="410" y="720" width="40" height="40" as="geometry"/>
                </mxCell>
                <mxCell id="150" value="&lt;span style=&quot;color: rgb(0, 0, 0); font-size: 12px;&quot;&gt;$$W$$&lt;/span&gt;" style="edgeLabel;html=1;align=center;verticalAlign=middle;resizable=0;points=[];labelBackgroundColor=none;" parent="1" vertex="1" connectable="0">
                    <mxGeometry x="229.99666666666673" y="810" as="geometry"/>
                </mxCell>
                <mxCell id="151" value="&lt;span style=&quot;color: rgb(0, 0, 0); font-size: 12px;&quot;&gt;$$W$$&lt;/span&gt;" style="edgeLabel;html=1;align=center;verticalAlign=middle;resizable=0;points=[];labelBackgroundColor=none;" parent="1" vertex="1" connectable="0">
                    <mxGeometry x="309.66666666666663" y="810" as="geometry"/>
                </mxCell>
                <mxCell id="152" value="&lt;span style=&quot;color: rgb(0, 0, 0); font-size: 12px;&quot;&gt;$$W$$&lt;/span&gt;" style="edgeLabel;html=1;align=center;verticalAlign=middle;resizable=0;points=[];labelBackgroundColor=none;" parent="1" vertex="1" connectable="0">
                    <mxGeometry x="389.9966666666667" y="810" as="geometry"/>
                </mxCell>
                <mxCell id="153" value="&lt;span style=&quot;color: rgb(0, 0, 0); font-size: 12px;&quot;&gt;$$U$$&lt;/span&gt;" style="edgeLabel;html=1;align=center;verticalAlign=middle;resizable=0;points=[];labelBackgroundColor=none;" parent="1" vertex="1" connectable="0">
                    <mxGeometry x="280" y="860.0042857142857" as="geometry"/>
                </mxCell>
                <mxCell id="154" value="&lt;span style=&quot;color: rgb(0, 0, 0); font-size: 12px;&quot;&gt;$$U$$&lt;/span&gt;" style="edgeLabel;html=1;align=center;verticalAlign=middle;resizable=0;points=[];labelBackgroundColor=none;" parent="1" vertex="1" connectable="0">
                    <mxGeometry x="360" y="859.7142857142859" as="geometry"/>
                </mxCell>
                <mxCell id="155" value="&lt;span style=&quot;color: rgb(0, 0, 0); font-size: 12px;&quot;&gt;$$U$$&lt;/span&gt;" style="edgeLabel;html=1;align=center;verticalAlign=middle;resizable=0;points=[];labelBackgroundColor=none;" parent="1" vertex="1" connectable="0">
                    <mxGeometry x="440" y="860.0042857142857" as="geometry"/>
                </mxCell>
                <mxCell id="158" value="&lt;span style=&quot;color: rgb(0, 0, 0); font-size: 12px;&quot;&gt;$$V$$&lt;/span&gt;" style="edgeLabel;html=1;align=center;verticalAlign=middle;resizable=0;points=[];labelBackgroundColor=none;" parent="1" vertex="1" connectable="0">
                    <mxGeometry x="440" y="779.9776190476191" as="geometry"/>
                </mxCell>
                <mxCell id="159" value="$$h_t=f(Ux_t+Wh_{t-1}+b)$$" style="text;html=1;align=center;verticalAlign=middle;resizable=0;points=[];autosize=1;strokeColor=none;fillColor=none;" parent="1" vertex="1">
                    <mxGeometry x="10" y="844.71" width="180" height="30" as="geometry"/>
                </mxCell>
                <mxCell id="160" value="$$y=f(Vh+c)$$" style="text;html=1;align=center;verticalAlign=middle;resizable=0;points=[];autosize=1;strokeColor=none;fillColor=none;" parent="1" vertex="1">
                    <mxGeometry x="321.67" y="766.98" width="97" height="26" as="geometry"/>
                </mxCell>
                <mxCell id="161" style="edgeStyle=none;html=1;entryX=0.5;entryY=1;entryDx=0;entryDy=0;" parent="1" source="163" target="171" edge="1">
                    <mxGeometry relative="1" as="geometry"/>
                </mxCell>
                <mxCell id="162" value="&lt;span style=&quot;color: rgb(0, 0, 0); font-size: 12px;&quot;&gt;$$U$$&lt;/span&gt;" style="edgeLabel;html=1;align=center;verticalAlign=middle;resizable=0;points=[];labelBackgroundColor=none;" parent="161" vertex="1" connectable="0">
                    <mxGeometry x="-0.2881" y="-1" relative="1" as="geometry">
                        <mxPoint x="9" y="-6" as="offset"/>
                    </mxGeometry>
                </mxCell>
                <mxCell id="163" value="&lt;span style=&quot;color: rgb(0, 0, 0);&quot;&gt;$$x_1$$&lt;/span&gt;" style="ellipse;whiteSpace=wrap;html=1;aspect=fixed;fillColor=#dae8fc;strokeColor=#6c8ebf;" parent="1" vertex="1">
                    <mxGeometry x="170" y="1144" width="40" height="40" as="geometry"/>
                </mxCell>
                <mxCell id="164" style="edgeStyle=none;html=1;entryX=0;entryY=0.5;entryDx=0;entryDy=0;" parent="1" source="166" target="171" edge="1">
                    <mxGeometry relative="1" as="geometry"/>
                </mxCell>
                <mxCell id="165" value="&lt;span style=&quot;color: rgb(0, 0, 0); font-size: 12px;&quot;&gt;$$W$$&lt;/span&gt;" style="edgeLabel;html=1;align=center;verticalAlign=middle;resizable=0;points=[];labelBackgroundColor=none;" parent="164" vertex="1" connectable="0">
                    <mxGeometry x="-0.1714" relative="1" as="geometry">
                        <mxPoint x="3" y="-10" as="offset"/>
                    </mxGeometry>
                </mxCell>
                <mxCell id="166" value="$$h_0$$" style="ellipse;whiteSpace=wrap;html=1;aspect=fixed;fillColor=#d5e8d4;strokeColor=#82b366;" parent="1" vertex="1">
                    <mxGeometry x="90" y="1064" width="40" height="40" as="geometry"/>
                </mxCell>
                <mxCell id="167" style="edgeStyle=none;html=1;entryX=0;entryY=0.5;entryDx=0;entryDy=0;" parent="1" source="171" target="176" edge="1">
                    <mxGeometry relative="1" as="geometry"/>
                </mxCell>
                <mxCell id="168" value="" style="edgeStyle=none;html=1;" parent="1" source="171" target="186" edge="1">
                    <mxGeometry relative="1" as="geometry"/>
                </mxCell>
                <mxCell id="169" value="&lt;span style=&quot;font-family: monospace; font-size: 0px; text-align: start; background-color: rgb(251, 251, 251);&quot;&gt;%3CmxGraphModel%3E%3Croot%3E%3CmxCell%20id%3D%220%22%2F%3E%3CmxCell%20id%3D%221%22%20parent%3D%220%22%2F%3E%3CmxCell%20id%3D%222%22%20value%3D%22%26lt%3Bspan%20style%3D%26quot%3Bcolor%3A%20rgb(0%2C%200%2C%200)%3B%20font-size%3A%2012px%3B%26quot%3B%26gt%3B%24%24U%24%24%26lt%3B%2Fspan%26gt%3B%22%20style%3D%22edgeLabel%3Bhtml%3D1%3Balign%3Dcenter%3BverticalAlign%3Dmiddle%3Bresizable%3D0%3Bpoints%3D%5B%5D%3BlabelBackgroundColor%3Dnone%3B%22%20vertex%3D%221%22%20connectable%3D%220%22%20parent%3D%221%22%3E%3CmxGeometry%20x%3D%22150%22%20y%3D%22659.7142857142859%22%20as%3D%22geometry%22%2F%3E%3C%2FmxCell%3E%3CmxCell%20id%3D%223%22%20value%3D%22%26lt%3Bspan%20style%3D%26quot%3Bcolor%3A%20rgb(0%2C%200%2C%200)%3B%20font-size%3A%2012px%3B%26quot%3B%26gt%3B%24%24U%24%24%26lt%3B%2Fspan%26gt%3B%22%20style%3D%22edgeLabel%3Bhtml%3D1%3Balign%3Dcenter%3BverticalAlign%3Dmiddle%3Bresizable%3D0%3Bpoints%3D%5B%5D%3BlabelBackgroundColor%3Dnone%3B%22%20vertex%3D%221%22%20connectable%3D%220%22%20parent%3D%221%22%3E%3CmxGeometry%20x%3D%22230%22%20y%3D%22660.0042857142857%22%20as%3D%22geometry%22%2F%3E%3C%2FmxCell%3E%3C%2Froot%3E%3C%2FmxGraphModel%3E&lt;/span&gt;" style="edgeLabel;html=1;align=center;verticalAlign=middle;resizable=0;points=[];" parent="168" vertex="1" connectable="0">
                    <mxGeometry x="-0.5262" y="1" relative="1" as="geometry">
                        <mxPoint as="offset"/>
                    </mxGeometry>
                </mxCell>
                <mxCell id="170" value="&lt;span style=&quot;color: rgb(0, 0, 0); font-size: 12px;&quot;&gt;$$V$$&lt;/span&gt;" style="edgeLabel;html=1;align=center;verticalAlign=middle;resizable=0;points=[];labelBackgroundColor=none;" parent="168" vertex="1" connectable="0">
                    <mxGeometry x="-0.4548" y="1" relative="1" as="geometry">
                        <mxPoint x="11" y="-9" as="offset"/>
                    </mxGeometry>
                </mxCell>
                <mxCell id="171" value="&lt;span style=&quot;color: rgb(0, 0, 0);&quot;&gt;$$h_1$$&lt;/span&gt;" style="rounded=1;whiteSpace=wrap;html=1;aspect=fixed;fillColor=#d5e8d4;strokeColor=#82b366;" parent="1" vertex="1">
                    <mxGeometry x="170" y="1064" width="40" height="40" as="geometry"/>
                </mxCell>
                <mxCell id="174" style="edgeStyle=none;html=1;entryX=0;entryY=0.5;entryDx=0;entryDy=0;" parent="1" source="176" target="181" edge="1">
                    <mxGeometry relative="1" as="geometry"/>
                </mxCell>
                <mxCell id="175" value="" style="edgeStyle=none;html=1;" parent="1" source="176" target="187" edge="1">
                    <mxGeometry relative="1" as="geometry"/>
                </mxCell>
                <mxCell id="176" value="&lt;span style=&quot;color: rgb(0, 0, 0);&quot;&gt;$$h_2$$&lt;/span&gt;" style="rounded=1;whiteSpace=wrap;html=1;aspect=fixed;fillColor=#d5e8d4;strokeColor=#82b366;" parent="1" vertex="1">
                    <mxGeometry x="250" y="1064" width="40" height="40" as="geometry"/>
                </mxCell>
                <mxCell id="179" style="edgeStyle=none;html=1;entryX=0;entryY=0.5;entryDx=0;entryDy=0;" parent="1" source="181" target="185" edge="1">
                    <mxGeometry relative="1" as="geometry"/>
                </mxCell>
                <mxCell id="180" value="" style="edgeStyle=none;html=1;" parent="1" source="181" target="188" edge="1">
                    <mxGeometry relative="1" as="geometry"/>
                </mxCell>
                <mxCell id="181" value="&lt;span style=&quot;color: rgb(0, 0, 0);&quot;&gt;$$h_3$$&lt;/span&gt;" style="rounded=1;whiteSpace=wrap;html=1;aspect=fixed;fillColor=#d5e8d4;strokeColor=#82b366;" parent="1" vertex="1">
                    <mxGeometry x="330" y="1064" width="40" height="40" as="geometry"/>
                </mxCell>
                <mxCell id="184" value="" style="edgeStyle=none;html=1;" parent="1" source="185" target="189" edge="1">
                    <mxGeometry relative="1" as="geometry"/>
                </mxCell>
                <mxCell id="185" value="&lt;span style=&quot;color: rgb(0, 0, 0);&quot;&gt;$$h_4$$&lt;/span&gt;" style="rounded=1;whiteSpace=wrap;html=1;aspect=fixed;fillColor=#d5e8d4;strokeColor=#82b366;" parent="1" vertex="1">
                    <mxGeometry x="410" y="1064" width="40" height="40" as="geometry"/>
                </mxCell>
                <mxCell id="186" value="&lt;span style=&quot;color: rgb(0, 0, 0);&quot;&gt;$$y_1$$&lt;/span&gt;" style="ellipse;whiteSpace=wrap;html=1;aspect=fixed;fillColor=#f8cecc;strokeColor=#b85450;" parent="1" vertex="1">
                    <mxGeometry x="170" y="984" width="40" height="40" as="geometry"/>
                </mxCell>
                <mxCell id="187" value="&lt;span style=&quot;color: rgb(0, 0, 0);&quot;&gt;$$y_2$$&lt;/span&gt;" style="ellipse;whiteSpace=wrap;html=1;aspect=fixed;fillColor=#f8cecc;strokeColor=#b85450;" parent="1" vertex="1">
                    <mxGeometry x="250" y="984" width="40" height="40" as="geometry"/>
                </mxCell>
                <mxCell id="188" value="&lt;span style=&quot;color: rgb(0, 0, 0);&quot;&gt;$$y_3$$&lt;/span&gt;" style="ellipse;whiteSpace=wrap;html=1;aspect=fixed;fillColor=#f8cecc;strokeColor=#b85450;" parent="1" vertex="1">
                    <mxGeometry x="330" y="984" width="40" height="40" as="geometry"/>
                </mxCell>
                <mxCell id="189" value="&lt;span style=&quot;color: rgb(0, 0, 0);&quot;&gt;$$y_4$$&lt;/span&gt;" style="ellipse;whiteSpace=wrap;html=1;aspect=fixed;fillColor=#f8cecc;strokeColor=#b85450;" parent="1" vertex="1">
                    <mxGeometry x="410" y="984" width="40" height="40" as="geometry"/>
                </mxCell>
                <mxCell id="190" value="&lt;span style=&quot;color: rgb(0, 0, 0); font-size: 12px;&quot;&gt;$$W$$&lt;/span&gt;" style="edgeLabel;html=1;align=center;verticalAlign=middle;resizable=0;points=[];labelBackgroundColor=none;" parent="1" vertex="1" connectable="0">
                    <mxGeometry x="229.99666666666673" y="1074" as="geometry"/>
                </mxCell>
                <mxCell id="191" value="&lt;span style=&quot;color: rgb(0, 0, 0); font-size: 12px;&quot;&gt;$$W$$&lt;/span&gt;" style="edgeLabel;html=1;align=center;verticalAlign=middle;resizable=0;points=[];labelBackgroundColor=none;" parent="1" vertex="1" connectable="0">
                    <mxGeometry x="309.66666666666663" y="1074" as="geometry"/>
                </mxCell>
                <mxCell id="192" value="&lt;span style=&quot;color: rgb(0, 0, 0); font-size: 12px;&quot;&gt;$$W$$&lt;/span&gt;" style="edgeLabel;html=1;align=center;verticalAlign=middle;resizable=0;points=[];labelBackgroundColor=none;" parent="1" vertex="1" connectable="0">
                    <mxGeometry x="389.9966666666667" y="1074" as="geometry"/>
                </mxCell>
                <mxCell id="196" value="&lt;span style=&quot;color: rgb(0, 0, 0); font-size: 12px;&quot;&gt;$$V$$&lt;/span&gt;" style="edgeLabel;html=1;align=center;verticalAlign=middle;resizable=0;points=[];labelBackgroundColor=none;" parent="1" vertex="1" connectable="0">
                    <mxGeometry x="280" y="1043.997619047619" as="geometry"/>
                </mxCell>
                <mxCell id="197" value="&lt;span style=&quot;color: rgb(0, 0, 0); font-size: 12px;&quot;&gt;$$V$$&lt;/span&gt;" style="edgeLabel;html=1;align=center;verticalAlign=middle;resizable=0;points=[];labelBackgroundColor=none;" parent="1" vertex="1" connectable="0">
                    <mxGeometry x="360" y="1044.027619047619" as="geometry"/>
                </mxCell>
                <mxCell id="198" value="&lt;span style=&quot;color: rgb(0, 0, 0); font-size: 12px;&quot;&gt;$$V$$&lt;/span&gt;" style="edgeLabel;html=1;align=center;verticalAlign=middle;resizable=0;points=[];labelBackgroundColor=none;" parent="1" vertex="1" connectable="0">
                    <mxGeometry x="440" y="1043.977619047619" as="geometry"/>
                </mxCell>
                <mxCell id="199" value="$$h_1=f(Ux_1+Wh_0+b)$$" style="text;html=1;align=center;verticalAlign=middle;resizable=0;points=[];autosize=1;strokeColor=none;fillColor=none;" parent="1" vertex="1">
                    <mxGeometry x="15" y="1108.71" width="170" height="30" as="geometry"/>
                </mxCell>
                <mxCell id="200" value="$$y_t=f(Vh_t+c)$$" style="text;html=1;align=center;verticalAlign=middle;resizable=0;points=[];autosize=1;strokeColor=none;fillColor=none;" parent="1" vertex="1">
                    <mxGeometry x="70" y="1028.98" width="120" height="30" as="geometry"/>
                </mxCell>
                <mxCell id="201" style="edgeStyle=none;html=1;entryX=0.5;entryY=1;entryDx=0;entryDy=0;" parent="1" source="203" target="211" edge="1">
                    <mxGeometry relative="1" as="geometry"/>
                </mxCell>
                <mxCell id="202" value="&lt;span style=&quot;color: rgb(0, 0, 0); font-size: 12px;&quot;&gt;$$U$$&lt;/span&gt;" style="edgeLabel;html=1;align=center;verticalAlign=middle;resizable=0;points=[];labelBackgroundColor=none;" parent="201" vertex="1" connectable="0">
                    <mxGeometry x="-0.2881" y="-1" relative="1" as="geometry">
                        <mxPoint x="53" y="-3" as="offset"/>
                    </mxGeometry>
                </mxCell>
                <mxCell id="232" style="edgeStyle=none;html=1;entryX=0.5;entryY=1;entryDx=0;entryDy=0;" parent="1" source="203" target="214" edge="1">
                    <mxGeometry relative="1" as="geometry"/>
                </mxCell>
                <mxCell id="233" style="edgeStyle=none;html=1;entryX=0.5;entryY=1;entryDx=0;entryDy=0;" parent="1" source="203" target="217" edge="1">
                    <mxGeometry relative="1" as="geometry"/>
                </mxCell>
                <mxCell id="234" style="edgeStyle=none;html=1;entryX=0.5;entryY=1;entryDx=0;entryDy=0;" parent="1" source="203" target="219" edge="1">
                    <mxGeometry relative="1" as="geometry"/>
                </mxCell>
                <mxCell id="203" value="&lt;span style=&quot;color: rgb(0, 0, 0);&quot;&gt;$$x_1$$&lt;/span&gt;" style="ellipse;whiteSpace=wrap;html=1;aspect=fixed;fillColor=#dae8fc;strokeColor=#6c8ebf;" parent="1" vertex="1">
                    <mxGeometry x="744.6700000000001" y="1154" width="40" height="40" as="geometry"/>
                </mxCell>
                <mxCell id="204" style="edgeStyle=none;html=1;entryX=0;entryY=0.5;entryDx=0;entryDy=0;" parent="1" source="206" target="211" edge="1">
                    <mxGeometry relative="1" as="geometry"/>
                </mxCell>
                <mxCell id="205" value="&lt;span style=&quot;color: rgb(0, 0, 0); font-size: 12px;&quot;&gt;$$W$$&lt;/span&gt;" style="edgeLabel;html=1;align=center;verticalAlign=middle;resizable=0;points=[];labelBackgroundColor=none;" parent="204" vertex="1" connectable="0">
                    <mxGeometry x="-0.1714" relative="1" as="geometry">
                        <mxPoint x="3" y="-10" as="offset"/>
                    </mxGeometry>
                </mxCell>
                <mxCell id="206" value="$$h_0$$" style="ellipse;whiteSpace=wrap;html=1;aspect=fixed;fillColor=#d5e8d4;strokeColor=#82b366;" parent="1" vertex="1">
                    <mxGeometry x="545" y="1064" width="40" height="40" as="geometry"/>
                </mxCell>
                <mxCell id="207" style="edgeStyle=none;html=1;entryX=0;entryY=0.5;entryDx=0;entryDy=0;" parent="1" source="211" target="214" edge="1">
                    <mxGeometry relative="1" as="geometry"/>
                </mxCell>
                <mxCell id="208" value="" style="edgeStyle=none;html=1;" parent="1" source="211" target="220" edge="1">
                    <mxGeometry relative="1" as="geometry"/>
                </mxCell>
                <mxCell id="209" value="&lt;span style=&quot;font-family: monospace; font-size: 0px; text-align: start; background-color: rgb(251, 251, 251);&quot;&gt;%3CmxGraphModel%3E%3Croot%3E%3CmxCell%20id%3D%220%22%2F%3E%3CmxCell%20id%3D%221%22%20parent%3D%220%22%2F%3E%3CmxCell%20id%3D%222%22%20value%3D%22%26lt%3Bspan%20style%3D%26quot%3Bcolor%3A%20rgb(0%2C%200%2C%200)%3B%20font-size%3A%2012px%3B%26quot%3B%26gt%3B%24%24U%24%24%26lt%3B%2Fspan%26gt%3B%22%20style%3D%22edgeLabel%3Bhtml%3D1%3Balign%3Dcenter%3BverticalAlign%3Dmiddle%3Bresizable%3D0%3Bpoints%3D%5B%5D%3BlabelBackgroundColor%3Dnone%3B%22%20vertex%3D%221%22%20connectable%3D%220%22%20parent%3D%221%22%3E%3CmxGeometry%20x%3D%22150%22%20y%3D%22659.7142857142859%22%20as%3D%22geometry%22%2F%3E%3C%2FmxCell%3E%3CmxCell%20id%3D%223%22%20value%3D%22%26lt%3Bspan%20style%3D%26quot%3Bcolor%3A%20rgb(0%2C%200%2C%200)%3B%20font-size%3A%2012px%3B%26quot%3B%26gt%3B%24%24U%24%24%26lt%3B%2Fspan%26gt%3B%22%20style%3D%22edgeLabel%3Bhtml%3D1%3Balign%3Dcenter%3BverticalAlign%3Dmiddle%3Bresizable%3D0%3Bpoints%3D%5B%5D%3BlabelBackgroundColor%3Dnone%3B%22%20vertex%3D%221%22%20connectable%3D%220%22%20parent%3D%221%22%3E%3CmxGeometry%20x%3D%22230%22%20y%3D%22660.0042857142857%22%20as%3D%22geometry%22%2F%3E%3C%2FmxCell%3E%3C%2Froot%3E%3C%2FmxGraphModel%3E&lt;/span&gt;" style="edgeLabel;html=1;align=center;verticalAlign=middle;resizable=0;points=[];" parent="208" vertex="1" connectable="0">
                    <mxGeometry x="-0.5262" y="1" relative="1" as="geometry">
                        <mxPoint as="offset"/>
                    </mxGeometry>
                </mxCell>
                <mxCell id="210" value="&lt;span style=&quot;color: rgb(0, 0, 0); font-size: 12px;&quot;&gt;$$V$$&lt;/span&gt;" style="edgeLabel;html=1;align=center;verticalAlign=middle;resizable=0;points=[];labelBackgroundColor=none;" parent="208" vertex="1" connectable="0">
                    <mxGeometry x="-0.4548" y="1" relative="1" as="geometry">
                        <mxPoint x="11" y="-9" as="offset"/>
                    </mxGeometry>
                </mxCell>
                <mxCell id="211" value="&lt;span style=&quot;color: rgb(0, 0, 0);&quot;&gt;$$h_1$$&lt;/span&gt;" style="rounded=1;whiteSpace=wrap;html=1;aspect=fixed;fillColor=#d5e8d4;strokeColor=#82b366;" parent="1" vertex="1">
                    <mxGeometry x="625" y="1064" width="40" height="40" as="geometry"/>
                </mxCell>
                <mxCell id="212" style="edgeStyle=none;html=1;entryX=0;entryY=0.5;entryDx=0;entryDy=0;" parent="1" source="214" target="217" edge="1">
                    <mxGeometry relative="1" as="geometry"/>
                </mxCell>
                <mxCell id="213" value="" style="edgeStyle=none;html=1;" parent="1" source="214" target="221" edge="1">
                    <mxGeometry relative="1" as="geometry"/>
                </mxCell>
                <mxCell id="214" value="&lt;span style=&quot;color: rgb(0, 0, 0);&quot;&gt;$$h_2$$&lt;/span&gt;" style="rounded=1;whiteSpace=wrap;html=1;aspect=fixed;fillColor=#d5e8d4;strokeColor=#82b366;" parent="1" vertex="1">
                    <mxGeometry x="705" y="1064" width="40" height="40" as="geometry"/>
                </mxCell>
                <mxCell id="215" style="edgeStyle=none;html=1;entryX=0;entryY=0.5;entryDx=0;entryDy=0;" parent="1" source="217" target="219" edge="1">
                    <mxGeometry relative="1" as="geometry"/>
                </mxCell>
                <mxCell id="216" value="" style="edgeStyle=none;html=1;" parent="1" source="217" target="222" edge="1">
                    <mxGeometry relative="1" as="geometry"/>
                </mxCell>
                <mxCell id="217" value="&lt;span style=&quot;color: rgb(0, 0, 0);&quot;&gt;$$h_3$$&lt;/span&gt;" style="rounded=1;whiteSpace=wrap;html=1;aspect=fixed;fillColor=#d5e8d4;strokeColor=#82b366;" parent="1" vertex="1">
                    <mxGeometry x="785" y="1064" width="40" height="40" as="geometry"/>
                </mxCell>
                <mxCell id="218" value="" style="edgeStyle=none;html=1;" parent="1" source="219" target="223" edge="1">
                    <mxGeometry relative="1" as="geometry"/>
                </mxCell>
                <mxCell id="219" value="&lt;span style=&quot;color: rgb(0, 0, 0);&quot;&gt;$$h_4$$&lt;/span&gt;" style="rounded=1;whiteSpace=wrap;html=1;aspect=fixed;fillColor=#d5e8d4;strokeColor=#82b366;" parent="1" vertex="1">
                    <mxGeometry x="865" y="1064" width="40" height="40" as="geometry"/>
                </mxCell>
                <mxCell id="220" value="&lt;span style=&quot;color: rgb(0, 0, 0);&quot;&gt;$$y_1$$&lt;/span&gt;" style="ellipse;whiteSpace=wrap;html=1;aspect=fixed;fillColor=#f8cecc;strokeColor=#b85450;" parent="1" vertex="1">
                    <mxGeometry x="625" y="984" width="40" height="40" as="geometry"/>
                </mxCell>
                <mxCell id="221" value="&lt;span style=&quot;color: rgb(0, 0, 0);&quot;&gt;$$y_2$$&lt;/span&gt;" style="ellipse;whiteSpace=wrap;html=1;aspect=fixed;fillColor=#f8cecc;strokeColor=#b85450;" parent="1" vertex="1">
                    <mxGeometry x="705" y="984" width="40" height="40" as="geometry"/>
                </mxCell>
                <mxCell id="222" value="&lt;span style=&quot;color: rgb(0, 0, 0);&quot;&gt;$$y_3$$&lt;/span&gt;" style="ellipse;whiteSpace=wrap;html=1;aspect=fixed;fillColor=#f8cecc;strokeColor=#b85450;" parent="1" vertex="1">
                    <mxGeometry x="785" y="984" width="40" height="40" as="geometry"/>
                </mxCell>
                <mxCell id="223" value="&lt;span style=&quot;color: rgb(0, 0, 0);&quot;&gt;$$y_4$$&lt;/span&gt;" style="ellipse;whiteSpace=wrap;html=1;aspect=fixed;fillColor=#f8cecc;strokeColor=#b85450;" parent="1" vertex="1">
                    <mxGeometry x="865" y="984" width="40" height="40" as="geometry"/>
                </mxCell>
                <mxCell id="224" value="&lt;span style=&quot;color: rgb(0, 0, 0); font-size: 12px;&quot;&gt;$$W$$&lt;/span&gt;" style="edgeLabel;html=1;align=center;verticalAlign=middle;resizable=0;points=[];labelBackgroundColor=none;" parent="1" vertex="1" connectable="0">
                    <mxGeometry x="684.9966666666667" y="1074" as="geometry"/>
                </mxCell>
                <mxCell id="225" value="&lt;span style=&quot;color: rgb(0, 0, 0); font-size: 12px;&quot;&gt;$$W$$&lt;/span&gt;" style="edgeLabel;html=1;align=center;verticalAlign=middle;resizable=0;points=[];labelBackgroundColor=none;" parent="1" vertex="1" connectable="0">
                    <mxGeometry x="764.6666666666666" y="1074" as="geometry"/>
                </mxCell>
                <mxCell id="226" value="&lt;span style=&quot;color: rgb(0, 0, 0); font-size: 12px;&quot;&gt;$$W$$&lt;/span&gt;" style="edgeLabel;html=1;align=center;verticalAlign=middle;resizable=0;points=[];labelBackgroundColor=none;" parent="1" vertex="1" connectable="0">
                    <mxGeometry x="844.9966666666667" y="1074" as="geometry"/>
                </mxCell>
                <mxCell id="227" value="&lt;span style=&quot;color: rgb(0, 0, 0); font-size: 12px;&quot;&gt;$$V$$&lt;/span&gt;" style="edgeLabel;html=1;align=center;verticalAlign=middle;resizable=0;points=[];labelBackgroundColor=none;" parent="1" vertex="1" connectable="0">
                    <mxGeometry x="735" y="1043.997619047619" as="geometry"/>
                </mxCell>
                <mxCell id="228" value="&lt;span style=&quot;color: rgb(0, 0, 0); font-size: 12px;&quot;&gt;$$V$$&lt;/span&gt;" style="edgeLabel;html=1;align=center;verticalAlign=middle;resizable=0;points=[];labelBackgroundColor=none;" parent="1" vertex="1" connectable="0">
                    <mxGeometry x="815" y="1044.027619047619" as="geometry"/>
                </mxCell>
                <mxCell id="229" value="&lt;span style=&quot;color: rgb(0, 0, 0); font-size: 12px;&quot;&gt;$$V$$&lt;/span&gt;" style="edgeLabel;html=1;align=center;verticalAlign=middle;resizable=0;points=[];labelBackgroundColor=none;" parent="1" vertex="1" connectable="0">
                    <mxGeometry x="895" y="1043.977619047619" as="geometry"/>
                </mxCell>
                <mxCell id="230" value="$$h_t=f(Ux_1+Wh_{t-1}+b)$$" style="text;html=1;align=center;verticalAlign=middle;resizable=0;points=[];autosize=1;strokeColor=none;fillColor=none;" parent="1" vertex="1">
                    <mxGeometry x="500" y="1124" width="180" height="30" as="geometry"/>
                </mxCell>
                <mxCell id="231" value="$$y_t=f(Vh_t+c)$$" style="text;html=1;align=center;verticalAlign=middle;resizable=0;points=[];autosize=1;strokeColor=none;fillColor=none;" parent="1" vertex="1">
                    <mxGeometry x="525" y="1028.98" width="120" height="30" as="geometry"/>
                </mxCell>
                <mxCell id="235" style="edgeStyle=none;html=1;entryX=0.5;entryY=1;entryDx=0;entryDy=0;" parent="1" source="237" target="245" edge="1">
                    <mxGeometry relative="1" as="geometry"/>
                </mxCell>
                <mxCell id="237" value="&lt;span style=&quot;color: rgb(0, 0, 0);&quot;&gt;$$x_1$$&lt;/span&gt;" style="ellipse;whiteSpace=wrap;html=1;aspect=fixed;fillColor=#dae8fc;strokeColor=#6c8ebf;" parent="1" vertex="1">
                    <mxGeometry x="105" y="1430" width="40" height="40" as="geometry"/>
                </mxCell>
                <mxCell id="238" style="edgeStyle=none;html=1;entryX=0;entryY=0.5;entryDx=0;entryDy=0;" parent="1" source="240" target="245" edge="1">
                    <mxGeometry relative="1" as="geometry"/>
                </mxCell>
                <mxCell id="240" value="$$h_0$$" style="ellipse;whiteSpace=wrap;html=1;aspect=fixed;fillColor=#d5e8d4;strokeColor=#82b366;" parent="1" vertex="1">
                    <mxGeometry x="25" y="1350" width="40" height="40" as="geometry"/>
                </mxCell>
                <mxCell id="241" style="edgeStyle=none;html=1;entryX=0;entryY=0.5;entryDx=0;entryDy=0;" parent="1" source="245" target="250" edge="1">
                    <mxGeometry relative="1" as="geometry"/>
                </mxCell>
                <mxCell id="242" value="" style="edgeStyle=none;html=1;" parent="1" target="260" edge="1">
                    <mxGeometry relative="1" as="geometry">
                        <mxPoint x="525" y="1350" as="sourcePoint"/>
                    </mxGeometry>
                </mxCell>
                <mxCell id="243" value="&lt;span style=&quot;font-family: monospace; font-size: 0px; text-align: start; background-color: rgb(251, 251, 251);&quot;&gt;%3CmxGraphModel%3E%3Croot%3E%3CmxCell%20id%3D%220%22%2F%3E%3CmxCell%20id%3D%221%22%20parent%3D%220%22%2F%3E%3CmxCell%20id%3D%222%22%20value%3D%22%26lt%3Bspan%20style%3D%26quot%3Bcolor%3A%20rgb(0%2C%200%2C%200)%3B%20font-size%3A%2012px%3B%26quot%3B%26gt%3B%24%24U%24%24%26lt%3B%2Fspan%26gt%3B%22%20style%3D%22edgeLabel%3Bhtml%3D1%3Balign%3Dcenter%3BverticalAlign%3Dmiddle%3Bresizable%3D0%3Bpoints%3D%5B%5D%3BlabelBackgroundColor%3Dnone%3B%22%20vertex%3D%221%22%20connectable%3D%220%22%20parent%3D%221%22%3E%3CmxGeometry%20x%3D%22150%22%20y%3D%22659.7142857142859%22%20as%3D%22geometry%22%2F%3E%3C%2FmxCell%3E%3CmxCell%20id%3D%223%22%20value%3D%22%26lt%3Bspan%20style%3D%26quot%3Bcolor%3A%20rgb(0%2C%200%2C%200)%3B%20font-size%3A%2012px%3B%26quot%3B%26gt%3B%24%24U%24%24%26lt%3B%2Fspan%26gt%3B%22%20style%3D%22edgeLabel%3Bhtml%3D1%3Balign%3Dcenter%3BverticalAlign%3Dmiddle%3Bresizable%3D0%3Bpoints%3D%5B%5D%3BlabelBackgroundColor%3Dnone%3B%22%20vertex%3D%221%22%20connectable%3D%220%22%20parent%3D%221%22%3E%3CmxGeometry%20x%3D%22230%22%20y%3D%22660.0042857142857%22%20as%3D%22geometry%22%2F%3E%3C%2FmxCell%3E%3C%2Froot%3E%3C%2FmxGraphModel%3E&lt;/span&gt;" style="edgeLabel;html=1;align=center;verticalAlign=middle;resizable=0;points=[];" parent="242" vertex="1" connectable="0">
                    <mxGeometry x="-0.5262" y="1" relative="1" as="geometry">
                        <mxPoint as="offset"/>
                    </mxGeometry>
                </mxCell>
                <mxCell id="245" value="&lt;span style=&quot;color: rgb(0, 0, 0);&quot;&gt;$$h_1$$&lt;/span&gt;" style="rounded=1;whiteSpace=wrap;html=1;aspect=fixed;fillColor=#d5e8d4;strokeColor=#82b366;" parent="1" vertex="1">
                    <mxGeometry x="105" y="1350" width="40" height="40" as="geometry"/>
                </mxCell>
                <mxCell id="246" style="edgeStyle=none;html=1;entryX=0.5;entryY=1;entryDx=0;entryDy=0;" parent="1" source="247" target="250" edge="1">
                    <mxGeometry relative="1" as="geometry"/>
                </mxCell>
                <mxCell id="247" value="&lt;span style=&quot;color: rgb(0, 0, 0);&quot;&gt;$$x_2$$&lt;/span&gt;" style="ellipse;whiteSpace=wrap;html=1;aspect=fixed;fillColor=#dae8fc;strokeColor=#6c8ebf;" parent="1" vertex="1">
                    <mxGeometry x="185" y="1430" width="40" height="40" as="geometry"/>
                </mxCell>
                <mxCell id="248" style="edgeStyle=none;html=1;entryX=0;entryY=0.5;entryDx=0;entryDy=0;" parent="1" source="250" target="255" edge="1">
                    <mxGeometry relative="1" as="geometry"/>
                </mxCell>
                <mxCell id="249" value="" style="edgeStyle=none;html=1;" parent="1" target="261" edge="1">
                    <mxGeometry relative="1" as="geometry">
                        <mxPoint x="605" y="1350" as="sourcePoint"/>
                    </mxGeometry>
                </mxCell>
                <mxCell id="250" value="&lt;span style=&quot;color: rgb(0, 0, 0);&quot;&gt;$$h_2$$&lt;/span&gt;" style="rounded=1;whiteSpace=wrap;html=1;aspect=fixed;fillColor=#d5e8d4;strokeColor=#82b366;" parent="1" vertex="1">
                    <mxGeometry x="185" y="1350" width="40" height="40" as="geometry"/>
                </mxCell>
                <mxCell id="251" style="edgeStyle=none;html=1;entryX=0.5;entryY=1;entryDx=0;entryDy=0;" parent="1" source="252" target="255" edge="1">
                    <mxGeometry relative="1" as="geometry"/>
                </mxCell>
                <mxCell id="252" value="&lt;span style=&quot;color: rgb(0, 0, 0);&quot;&gt;$$x_3$$&lt;/span&gt;" style="ellipse;whiteSpace=wrap;html=1;aspect=fixed;fillColor=#dae8fc;strokeColor=#6c8ebf;" parent="1" vertex="1">
                    <mxGeometry x="265" y="1430" width="40" height="40" as="geometry"/>
                </mxCell>
                <mxCell id="253" style="edgeStyle=none;html=1;entryX=0;entryY=0.5;entryDx=0;entryDy=0;" parent="1" source="255" target="259" edge="1">
                    <mxGeometry relative="1" as="geometry"/>
                </mxCell>
                <mxCell id="254" value="" style="edgeStyle=none;html=1;" parent="1" target="262" edge="1">
                    <mxGeometry relative="1" as="geometry">
                        <mxPoint x="685" y="1350" as="sourcePoint"/>
                    </mxGeometry>
                </mxCell>
                <mxCell id="255" value="&lt;span style=&quot;color: rgb(0, 0, 0);&quot;&gt;$$h_3$$&lt;/span&gt;" style="rounded=1;whiteSpace=wrap;html=1;aspect=fixed;fillColor=#d5e8d4;strokeColor=#82b366;" parent="1" vertex="1">
                    <mxGeometry x="265" y="1350" width="40" height="40" as="geometry"/>
                </mxCell>
                <mxCell id="256" style="edgeStyle=none;html=1;entryX=0.5;entryY=1;entryDx=0;entryDy=0;" parent="1" source="257" target="259" edge="1">
                    <mxGeometry relative="1" as="geometry"/>
                </mxCell>
                <mxCell id="257" value="&lt;span style=&quot;color: rgb(0, 0, 0);&quot;&gt;$$x_4$$&lt;/span&gt;" style="ellipse;whiteSpace=wrap;html=1;aspect=fixed;fillColor=#dae8fc;strokeColor=#6c8ebf;" parent="1" vertex="1">
                    <mxGeometry x="345" y="1430" width="40" height="40" as="geometry"/>
                </mxCell>
                <mxCell id="276" value="" style="edgeStyle=none;html=1;" parent="1" source="259" target="275" edge="1">
                    <mxGeometry relative="1" as="geometry"/>
                </mxCell>
                <mxCell id="259" value="&lt;span style=&quot;color: rgb(0, 0, 0);&quot;&gt;$$h_4$$&lt;/span&gt;" style="rounded=1;whiteSpace=wrap;html=1;aspect=fixed;fillColor=#d5e8d4;strokeColor=#82b366;" parent="1" vertex="1">
                    <mxGeometry x="345" y="1350" width="40" height="40" as="geometry"/>
                </mxCell>
                <mxCell id="260" value="&lt;span style=&quot;color: rgb(0, 0, 0);&quot;&gt;$$y_1$$&lt;/span&gt;" style="ellipse;whiteSpace=wrap;html=1;aspect=fixed;fillColor=#f8cecc;strokeColor=#b85450;" parent="1" vertex="1">
                    <mxGeometry x="505" y="1270" width="40" height="40" as="geometry"/>
                </mxCell>
                <mxCell id="261" value="&lt;span style=&quot;color: rgb(0, 0, 0);&quot;&gt;$$y_2$$&lt;/span&gt;" style="ellipse;whiteSpace=wrap;html=1;aspect=fixed;fillColor=#f8cecc;strokeColor=#b85450;" parent="1" vertex="1">
                    <mxGeometry x="585" y="1270" width="40" height="40" as="geometry"/>
                </mxCell>
                <mxCell id="262" value="&lt;span style=&quot;color: rgb(0, 0, 0);&quot;&gt;$$y_3$$&lt;/span&gt;" style="ellipse;whiteSpace=wrap;html=1;aspect=fixed;fillColor=#f8cecc;strokeColor=#b85450;" parent="1" vertex="1">
                    <mxGeometry x="665" y="1270" width="40" height="40" as="geometry"/>
                </mxCell>
                <mxCell id="280" value="" style="edgeStyle=none;html=1;" parent="1" source="275" target="277" edge="1">
                    <mxGeometry relative="1" as="geometry"/>
                </mxCell>
                <mxCell id="275" value="&lt;span style=&quot;color: rgb(0, 0, 0);&quot;&gt;$$c$$&lt;/span&gt;" style="ellipse;whiteSpace=wrap;html=1;aspect=fixed;fillColor=#fff2cc;strokeColor=#d6b656;" parent="1" vertex="1">
                    <mxGeometry x="425" y="1350" width="40" height="40" as="geometry"/>
                </mxCell>
                <mxCell id="281" value="" style="edgeStyle=none;html=1;" parent="1" source="277" target="278" edge="1">
                    <mxGeometry relative="1" as="geometry"/>
                </mxCell>
                <mxCell id="277" value="&lt;span style=&quot;color: rgb(0, 0, 0);&quot;&gt;$$h&#39;_1$$&lt;/span&gt;" style="rounded=1;whiteSpace=wrap;html=1;aspect=fixed;fillColor=#d5e8d4;strokeColor=#82b366;" parent="1" vertex="1">
                    <mxGeometry x="505" y="1350" width="40" height="40" as="geometry"/>
                </mxCell>
                <mxCell id="282" value="" style="edgeStyle=none;html=1;" parent="1" source="278" target="279" edge="1">
                    <mxGeometry relative="1" as="geometry"/>
                </mxCell>
                <mxCell id="278" value="&lt;span style=&quot;color: rgb(0, 0, 0);&quot;&gt;$$h&#39;_2$$&lt;/span&gt;" style="rounded=1;whiteSpace=wrap;html=1;aspect=fixed;fillColor=#d5e8d4;strokeColor=#82b366;" parent="1" vertex="1">
                    <mxGeometry x="585" y="1350" width="40" height="40" as="geometry"/>
                </mxCell>
                <mxCell id="279" value="&lt;span style=&quot;color: rgb(0, 0, 0);&quot;&gt;$$h&#39;_3$$&lt;/span&gt;" style="rounded=1;whiteSpace=wrap;html=1;aspect=fixed;fillColor=#d5e8d4;strokeColor=#82b366;" parent="1" vertex="1">
                    <mxGeometry x="665" y="1350" width="40" height="40" as="geometry"/>
                </mxCell>
                <mxCell id="283" style="edgeStyle=none;html=1;entryX=0.5;entryY=1;entryDx=0;entryDy=0;" parent="1" source="284" target="290" edge="1">
                    <mxGeometry relative="1" as="geometry"/>
                </mxCell>
                <mxCell id="284" value="&lt;span style=&quot;color: rgb(0, 0, 0);&quot;&gt;$$x_1$$&lt;/span&gt;" style="ellipse;whiteSpace=wrap;html=1;aspect=fixed;fillColor=#dae8fc;strokeColor=#6c8ebf;" parent="1" vertex="1">
                    <mxGeometry x="860" y="1510" width="40" height="40" as="geometry"/>
                </mxCell>
                <mxCell id="285" style="edgeStyle=none;html=1;entryX=0;entryY=0.5;entryDx=0;entryDy=0;" parent="1" source="286" target="290" edge="1">
                    <mxGeometry relative="1" as="geometry"/>
                </mxCell>
                <mxCell id="286" value="$$h_0$$" style="ellipse;whiteSpace=wrap;html=1;aspect=fixed;fillColor=#d5e8d4;strokeColor=#82b366;" parent="1" vertex="1">
                    <mxGeometry x="780" y="1430" width="40" height="40" as="geometry"/>
                </mxCell>
                <mxCell id="287" style="edgeStyle=none;html=1;entryX=0;entryY=0.5;entryDx=0;entryDy=0;" parent="1" source="290" target="295" edge="1">
                    <mxGeometry relative="1" as="geometry"/>
                </mxCell>
                <mxCell id="288" value="" style="edgeStyle=none;html=1;" parent="1" target="305" edge="1">
                    <mxGeometry relative="1" as="geometry">
                        <mxPoint x="1200" y="1350" as="sourcePoint"/>
                    </mxGeometry>
                </mxCell>
                <mxCell id="289" value="&lt;span style=&quot;font-family: monospace; font-size: 0px; text-align: start; background-color: rgb(251, 251, 251);&quot;&gt;%3CmxGraphModel%3E%3Croot%3E%3CmxCell%20id%3D%220%22%2F%3E%3CmxCell%20id%3D%221%22%20parent%3D%220%22%2F%3E%3CmxCell%20id%3D%222%22%20value%3D%22%26lt%3Bspan%20style%3D%26quot%3Bcolor%3A%20rgb(0%2C%200%2C%200)%3B%20font-size%3A%2012px%3B%26quot%3B%26gt%3B%24%24U%24%24%26lt%3B%2Fspan%26gt%3B%22%20style%3D%22edgeLabel%3Bhtml%3D1%3Balign%3Dcenter%3BverticalAlign%3Dmiddle%3Bresizable%3D0%3Bpoints%3D%5B%5D%3BlabelBackgroundColor%3Dnone%3B%22%20vertex%3D%221%22%20connectable%3D%220%22%20parent%3D%221%22%3E%3CmxGeometry%20x%3D%22150%22%20y%3D%22659.7142857142859%22%20as%3D%22geometry%22%2F%3E%3C%2FmxCell%3E%3CmxCell%20id%3D%223%22%20value%3D%22%26lt%3Bspan%20style%3D%26quot%3Bcolor%3A%20rgb(0%2C%200%2C%200)%3B%20font-size%3A%2012px%3B%26quot%3B%26gt%3B%24%24U%24%24%26lt%3B%2Fspan%26gt%3B%22%20style%3D%22edgeLabel%3Bhtml%3D1%3Balign%3Dcenter%3BverticalAlign%3Dmiddle%3Bresizable%3D0%3Bpoints%3D%5B%5D%3BlabelBackgroundColor%3Dnone%3B%22%20vertex%3D%221%22%20connectable%3D%220%22%20parent%3D%221%22%3E%3CmxGeometry%20x%3D%22230%22%20y%3D%22660.0042857142857%22%20as%3D%22geometry%22%2F%3E%3C%2FmxCell%3E%3C%2Froot%3E%3C%2FmxGraphModel%3E&lt;/span&gt;" style="edgeLabel;html=1;align=center;verticalAlign=middle;resizable=0;points=[];" parent="288" vertex="1" connectable="0">
                    <mxGeometry x="-0.5262" y="1" relative="1" as="geometry">
                        <mxPoint as="offset"/>
                    </mxGeometry>
                </mxCell>
                <mxCell id="290" value="&lt;span style=&quot;color: rgb(0, 0, 0);&quot;&gt;$$h_1$$&lt;/span&gt;" style="rounded=1;whiteSpace=wrap;html=1;aspect=fixed;fillColor=#d5e8d4;strokeColor=#82b366;" parent="1" vertex="1">
                    <mxGeometry x="860" y="1430" width="40" height="40" as="geometry"/>
                </mxCell>
                <mxCell id="291" style="edgeStyle=none;html=1;entryX=0.5;entryY=1;entryDx=0;entryDy=0;" parent="1" source="292" target="295" edge="1">
                    <mxGeometry relative="1" as="geometry"/>
                </mxCell>
                <mxCell id="292" value="&lt;span style=&quot;color: rgb(0, 0, 0);&quot;&gt;$$x_2$$&lt;/span&gt;" style="ellipse;whiteSpace=wrap;html=1;aspect=fixed;fillColor=#dae8fc;strokeColor=#6c8ebf;" parent="1" vertex="1">
                    <mxGeometry x="940" y="1510" width="40" height="40" as="geometry"/>
                </mxCell>
                <mxCell id="293" style="edgeStyle=none;html=1;entryX=0;entryY=0.5;entryDx=0;entryDy=0;" parent="1" source="295" target="300" edge="1">
                    <mxGeometry relative="1" as="geometry"/>
                </mxCell>
                <mxCell id="294" value="" style="edgeStyle=none;html=1;" parent="1" target="306" edge="1">
                    <mxGeometry relative="1" as="geometry">
                        <mxPoint x="1280" y="1350" as="sourcePoint"/>
                    </mxGeometry>
                </mxCell>
                <mxCell id="295" value="&lt;span style=&quot;color: rgb(0, 0, 0);&quot;&gt;$$h_2$$&lt;/span&gt;" style="rounded=1;whiteSpace=wrap;html=1;aspect=fixed;fillColor=#d5e8d4;strokeColor=#82b366;" parent="1" vertex="1">
                    <mxGeometry x="940" y="1430" width="40" height="40" as="geometry"/>
                </mxCell>
                <mxCell id="296" style="edgeStyle=none;html=1;entryX=0.5;entryY=1;entryDx=0;entryDy=0;" parent="1" source="297" target="300" edge="1">
                    <mxGeometry relative="1" as="geometry"/>
                </mxCell>
                <mxCell id="297" value="&lt;span style=&quot;color: rgb(0, 0, 0);&quot;&gt;$$x_3$$&lt;/span&gt;" style="ellipse;whiteSpace=wrap;html=1;aspect=fixed;fillColor=#dae8fc;strokeColor=#6c8ebf;" parent="1" vertex="1">
                    <mxGeometry x="1020" y="1510" width="40" height="40" as="geometry"/>
                </mxCell>
                <mxCell id="298" style="edgeStyle=none;html=1;entryX=0;entryY=0.5;entryDx=0;entryDy=0;" parent="1" source="300" target="304" edge="1">
                    <mxGeometry relative="1" as="geometry"/>
                </mxCell>
                <mxCell id="299" value="" style="edgeStyle=none;html=1;" parent="1" target="307" edge="1">
                    <mxGeometry relative="1" as="geometry">
                        <mxPoint x="1360" y="1350" as="sourcePoint"/>
                    </mxGeometry>
                </mxCell>
                <mxCell id="300" value="&lt;span style=&quot;color: rgb(0, 0, 0);&quot;&gt;$$h_3$$&lt;/span&gt;" style="rounded=1;whiteSpace=wrap;html=1;aspect=fixed;fillColor=#d5e8d4;strokeColor=#82b366;" parent="1" vertex="1">
                    <mxGeometry x="1020" y="1430" width="40" height="40" as="geometry"/>
                </mxCell>
                <mxCell id="301" style="edgeStyle=none;html=1;entryX=0.5;entryY=1;entryDx=0;entryDy=0;" parent="1" source="302" target="304" edge="1">
                    <mxGeometry relative="1" as="geometry"/>
                </mxCell>
                <mxCell id="302" value="&lt;span style=&quot;color: rgb(0, 0, 0);&quot;&gt;$$x_4$$&lt;/span&gt;" style="ellipse;whiteSpace=wrap;html=1;aspect=fixed;fillColor=#dae8fc;strokeColor=#6c8ebf;" parent="1" vertex="1">
                    <mxGeometry x="1100" y="1510" width="40" height="40" as="geometry"/>
                </mxCell>
                <mxCell id="303" value="" style="edgeStyle=none;html=1;" parent="1" source="304" target="309" edge="1">
                    <mxGeometry relative="1" as="geometry"/>
                </mxCell>
                <mxCell id="304" value="&lt;span style=&quot;color: rgb(0, 0, 0);&quot;&gt;$$h_4$$&lt;/span&gt;" style="rounded=1;whiteSpace=wrap;html=1;aspect=fixed;fillColor=#d5e8d4;strokeColor=#82b366;" parent="1" vertex="1">
                    <mxGeometry x="1100" y="1430" width="40" height="40" as="geometry"/>
                </mxCell>
                <mxCell id="305" value="&lt;span style=&quot;color: rgb(0, 0, 0);&quot;&gt;$$y_1$$&lt;/span&gt;" style="ellipse;whiteSpace=wrap;html=1;aspect=fixed;fillColor=#f8cecc;strokeColor=#b85450;" parent="1" vertex="1">
                    <mxGeometry x="1180" y="1270" width="40" height="40" as="geometry"/>
                </mxCell>
                <mxCell id="306" value="&lt;span style=&quot;color: rgb(0, 0, 0);&quot;&gt;$$y_2$$&lt;/span&gt;" style="ellipse;whiteSpace=wrap;html=1;aspect=fixed;fillColor=#f8cecc;strokeColor=#b85450;" parent="1" vertex="1">
                    <mxGeometry x="1260" y="1270" width="40" height="40" as="geometry"/>
                </mxCell>
                <mxCell id="307" value="&lt;span style=&quot;color: rgb(0, 0, 0);&quot;&gt;$$y_3$$&lt;/span&gt;" style="ellipse;whiteSpace=wrap;html=1;aspect=fixed;fillColor=#f8cecc;strokeColor=#b85450;" parent="1" vertex="1">
                    <mxGeometry x="1340" y="1270" width="40" height="40" as="geometry"/>
                </mxCell>
                <mxCell id="308" value="" style="edgeStyle=none;html=1;" parent="1" source="309" target="311" edge="1">
                    <mxGeometry relative="1" as="geometry"/>
                </mxCell>
                <mxCell id="317" style="edgeStyle=none;html=1;entryX=0.5;entryY=1;entryDx=0;entryDy=0;" parent="1" source="309" target="313" edge="1">
                    <mxGeometry relative="1" as="geometry"/>
                </mxCell>
                <mxCell id="318" style="edgeStyle=none;html=1;entryX=0.5;entryY=1;entryDx=0;entryDy=0;" parent="1" source="309" target="314" edge="1">
                    <mxGeometry relative="1" as="geometry"/>
                </mxCell>
                <mxCell id="309" value="&lt;span style=&quot;color: rgb(0, 0, 0);&quot;&gt;$$c$$&lt;/span&gt;" style="ellipse;whiteSpace=wrap;html=1;aspect=fixed;fillColor=#fff2cc;strokeColor=#d6b656;" parent="1" vertex="1">
                    <mxGeometry x="1180" y="1430" width="40" height="40" as="geometry"/>
                </mxCell>
                <mxCell id="310" value="" style="edgeStyle=none;html=1;" parent="1" source="311" target="313" edge="1">
                    <mxGeometry relative="1" as="geometry"/>
                </mxCell>
                <mxCell id="311" value="&lt;span style=&quot;color: rgb(0, 0, 0);&quot;&gt;$$h&#39;_1$$&lt;/span&gt;" style="rounded=1;whiteSpace=wrap;html=1;aspect=fixed;fillColor=#d5e8d4;strokeColor=#82b366;" parent="1" vertex="1">
                    <mxGeometry x="1180" y="1350" width="40" height="40" as="geometry"/>
                </mxCell>
                <mxCell id="312" value="" style="edgeStyle=none;html=1;" parent="1" source="313" target="314" edge="1">
                    <mxGeometry relative="1" as="geometry"/>
                </mxCell>
                <mxCell id="313" value="&lt;span style=&quot;color: rgb(0, 0, 0);&quot;&gt;$$h&#39;_2$$&lt;/span&gt;" style="rounded=1;whiteSpace=wrap;html=1;aspect=fixed;fillColor=#d5e8d4;strokeColor=#82b366;" parent="1" vertex="1">
                    <mxGeometry x="1260" y="1350" width="40" height="40" as="geometry"/>
                </mxCell>
                <mxCell id="314" value="&lt;span style=&quot;color: rgb(0, 0, 0);&quot;&gt;$$h&#39;_3$$&lt;/span&gt;" style="rounded=1;whiteSpace=wrap;html=1;aspect=fixed;fillColor=#d5e8d4;strokeColor=#82b366;" parent="1" vertex="1">
                    <mxGeometry x="1340" y="1350" width="40" height="40" as="geometry"/>
                </mxCell>
                <mxCell id="316" value="" style="edgeStyle=none;html=1;" parent="1" source="315" target="311" edge="1">
                    <mxGeometry relative="1" as="geometry"/>
                </mxCell>
                <mxCell id="315" value="&lt;span style=&quot;color: rgb(0, 0, 0);&quot;&gt;$$h&#39;_0$$&lt;/span&gt;" style="rounded=1;whiteSpace=wrap;html=1;aspect=fixed;fillColor=#d5e8d4;strokeColor=#82b366;" parent="1" vertex="1">
                    <mxGeometry x="1100" y="1350" width="40" height="40" as="geometry"/>
                </mxCell>
                <mxCell id="321" value="" style="endArrow=classic;html=1;" parent="1" edge="1">
                    <mxGeometry width="50" height="50" relative="1" as="geometry">
                        <mxPoint x="80" y="1760" as="sourcePoint"/>
                        <mxPoint x="160" y="1560" as="targetPoint"/>
                        <Array as="points">
                            <mxPoint x="79.66999999999999" y="1650"/>
                            <mxPoint x="160" y="1650"/>
                        </Array>
                    </mxGeometry>
                </mxCell>
                <mxCell id="324" value="$$x_{t-1}$$" style="edgeLabel;html=1;align=center;verticalAlign=middle;resizable=0;points=[];labelBackgroundColor=none;fontSize=12;" parent="321" vertex="1" connectable="0">
                    <mxGeometry x="-0.8382" y="3" relative="1" as="geometry">
                        <mxPoint x="18" y="15" as="offset"/>
                    </mxGeometry>
                </mxCell>
                <mxCell id="326" value="&lt;span style=&quot;color: rgb(0, 0, 0);&quot;&gt;$$h_{t-1}$$&lt;/span&gt;" style="edgeLabel;html=1;align=center;verticalAlign=middle;resizable=0;points=[];labelBackgroundColor=none;fontSize=12;" parent="321" vertex="1" connectable="0">
                    <mxGeometry x="0.8675" y="-2" relative="1" as="geometry">
                        <mxPoint x="-22" y="1" as="offset"/>
                    </mxGeometry>
                </mxCell>
                <mxCell id="322" value="" style="endArrow=none;html=1;" parent="1" edge="1">
                    <mxGeometry width="50" height="50" relative="1" as="geometry">
                        <mxPoint x="100" y="1650" as="sourcePoint"/>
                        <mxPoint x="40" y="1650" as="targetPoint"/>
                    </mxGeometry>
                </mxCell>
                <mxCell id="327" value="tanh" style="rounded=1;whiteSpace=wrap;html=1;fontSize=15;" parent="1" vertex="1">
                    <mxGeometry x="100" y="1640" width="40" height="20" as="geometry"/>
                </mxCell>
                <mxCell id="331" value="" style="endArrow=classic;html=1;entryX=0;entryY=0.5;entryDx=0;entryDy=0;" parent="1" target="362" edge="1">
                    <mxGeometry width="50" height="50" relative="1" as="geometry">
                        <mxPoint x="160" y="1610" as="sourcePoint"/>
                        <mxPoint x="220" y="1650" as="targetPoint"/>
                        <Array as="points">
                            <mxPoint x="160" y="1590"/>
                            <mxPoint x="190" y="1590"/>
                            <mxPoint x="190" y="1650"/>
                        </Array>
                    </mxGeometry>
                </mxCell>
                <mxCell id="345" value="" style="endArrow=classic;html=1;" parent="1" edge="1">
                    <mxGeometry width="50" height="50" relative="1" as="geometry">
                        <mxPoint x="490" y="1590" as="sourcePoint"/>
                        <mxPoint x="550" y="1650" as="targetPoint"/>
                        <Array as="points">
                            <mxPoint x="490" y="1580"/>
                            <mxPoint x="520" y="1580"/>
                            <mxPoint x="520" y="1650"/>
                        </Array>
                    </mxGeometry>
                </mxCell>
                <mxCell id="354" value="" style="endArrow=classic;html=1;" parent="1" edge="1">
                    <mxGeometry width="50" height="50" relative="1" as="geometry">
                        <mxPoint x="570" y="1760" as="sourcePoint"/>
                        <mxPoint x="650" y="1560" as="targetPoint"/>
                        <Array as="points">
                            <mxPoint x="569.6700000000001" y="1650"/>
                            <mxPoint x="650" y="1650"/>
                        </Array>
                    </mxGeometry>
                </mxCell>
                <mxCell id="355" value="$$x_{t+1}$$" style="edgeLabel;html=1;align=center;verticalAlign=middle;resizable=0;points=[];labelBackgroundColor=none;fontSize=12;" parent="354" vertex="1" connectable="0">
                    <mxGeometry x="-0.8382" y="3" relative="1" as="geometry">
                        <mxPoint x="18" y="14" as="offset"/>
                    </mxGeometry>
                </mxCell>
                <mxCell id="356" value="&lt;span style=&quot;color: rgb(0, 0, 0);&quot;&gt;$$h_{t+1}$$&lt;/span&gt;" style="edgeLabel;html=1;align=center;verticalAlign=middle;resizable=0;points=[];labelBackgroundColor=none;fontSize=12;" parent="354" vertex="1" connectable="0">
                    <mxGeometry x="0.8675" y="-2" relative="1" as="geometry">
                        <mxPoint x="-22" y="1" as="offset"/>
                    </mxGeometry>
                </mxCell>
                <mxCell id="357" value="" style="endArrow=none;html=1;" parent="1" edge="1">
                    <mxGeometry width="50" height="50" relative="1" as="geometry">
                        <mxPoint x="590" y="1650" as="sourcePoint"/>
                        <mxPoint x="550" y="1650" as="targetPoint"/>
                    </mxGeometry>
                </mxCell>
                <mxCell id="358" value="tanh" style="rounded=1;whiteSpace=wrap;html=1;fontSize=15;" parent="1" vertex="1">
                    <mxGeometry x="590" y="1640" width="40" height="20" as="geometry"/>
                </mxCell>
                <mxCell id="359" value="" style="endArrow=classic;html=1;" parent="1" edge="1">
                    <mxGeometry width="50" height="50" relative="1" as="geometry">
                        <mxPoint x="650" y="1610" as="sourcePoint"/>
                        <mxPoint x="710" y="1650" as="targetPoint"/>
                        <Array as="points">
                            <mxPoint x="650" y="1590"/>
                            <mxPoint x="680" y="1590"/>
                            <mxPoint x="680" y="1650"/>
                        </Array>
                    </mxGeometry>
                </mxCell>
                <mxCell id="319" value="" style="rounded=1;whiteSpace=wrap;html=1;fillColor=#d5e8d4;strokeColor=#82b366;opacity=80;" parent="1" vertex="1">
                    <mxGeometry x="60" y="1610" width="120" height="80" as="geometry"/>
                </mxCell>
                <mxCell id="353" value="" style="rounded=1;whiteSpace=wrap;html=1;fillColor=#d5e8d4;strokeColor=#82b366;opacity=80;" parent="1" vertex="1">
                    <mxGeometry x="550" y="1610" width="120" height="80" as="geometry"/>
                </mxCell>
                <mxCell id="360" value="" style="endArrow=classic;html=1;" parent="1" edge="1">
                    <mxGeometry width="50" height="50" relative="1" as="geometry">
                        <mxPoint x="330" y="1760" as="sourcePoint"/>
                        <mxPoint x="330" y="1710" as="targetPoint"/>
                    </mxGeometry>
                </mxCell>
                <mxCell id="368" value="&lt;span style=&quot;color: rgb(0, 0, 0);&quot;&gt;$$x_{t}$$&lt;/span&gt;" style="edgeLabel;html=1;align=center;verticalAlign=middle;resizable=0;points=[];labelBackgroundColor=none;fontSize=12;" parent="360" vertex="1" connectable="0">
                    <mxGeometry x="-0.504" y="1" relative="1" as="geometry">
                        <mxPoint x="10" y="4" as="offset"/>
                    </mxGeometry>
                </mxCell>
                <mxCell id="370" style="edgeStyle=none;html=1;exitX=1;exitY=0.5;exitDx=0;exitDy=0;entryX=0;entryY=1;entryDx=0;entryDy=0;" parent="1" source="361" target="371" edge="1">
                    <mxGeometry relative="1" as="geometry">
                        <mxPoint x="350" y="1650" as="targetPoint"/>
                        <Array as="points"/>
                    </mxGeometry>
                </mxCell>
                <mxCell id="361" value="Mat&lt;div&gt;Mul&lt;/div&gt;" style="ellipse;whiteSpace=wrap;html=1;aspect=fixed;" parent="1" vertex="1">
                    <mxGeometry x="310" y="1670" width="40" height="40" as="geometry"/>
                </mxCell>
                <mxCell id="369" style="edgeStyle=none;html=1;entryX=0;entryY=0.5;entryDx=0;entryDy=0;" parent="1" source="362" target="371" edge="1">
                    <mxGeometry relative="1" as="geometry">
                        <mxPoint x="350" y="1650" as="targetPoint"/>
                    </mxGeometry>
                </mxCell>
                <mxCell id="362" value="Mat&lt;div&gt;Mul&lt;/div&gt;" style="ellipse;whiteSpace=wrap;html=1;aspect=fixed;" parent="1" vertex="1">
                    <mxGeometry x="270" y="1630" width="40" height="40" as="geometry"/>
                </mxCell>
                <mxCell id="364" value="" style="endArrow=classic;html=1;entryX=0;entryY=1;entryDx=0;entryDy=0;" parent="1" target="361" edge="1">
                    <mxGeometry width="50" height="50" relative="1" as="geometry">
                        <mxPoint x="270" y="1720" as="sourcePoint"/>
                        <mxPoint x="275" y="1710" as="targetPoint"/>
                    </mxGeometry>
                </mxCell>
                <mxCell id="367" value="&lt;span style=&quot;color: rgb(0, 0, 0);&quot;&gt;$$W_x$$&lt;/span&gt;" style="edgeLabel;html=1;align=center;verticalAlign=middle;resizable=0;points=[];labelBackgroundColor=none;fontSize=12;" parent="364" vertex="1" connectable="0">
                    <mxGeometry x="-0.0024" relative="1" as="geometry">
                        <mxPoint x="-13" y="-8" as="offset"/>
                    </mxGeometry>
                </mxCell>
                <mxCell id="365" value="" style="endArrow=classic;html=1;entryX=0;entryY=0;entryDx=0;entryDy=0;" parent="1" target="362" edge="1">
                    <mxGeometry width="50" height="50" relative="1" as="geometry">
                        <mxPoint x="230" y="1620" as="sourcePoint"/>
                        <mxPoint x="320" y="1610" as="targetPoint"/>
                    </mxGeometry>
                </mxCell>
                <mxCell id="366" value="$$W_h$$" style="edgeLabel;html=1;align=center;verticalAlign=middle;resizable=0;points=[];labelBackgroundColor=none;fontSize=12;" parent="365" vertex="1" connectable="0">
                    <mxGeometry x="-0.221" y="1" relative="1" as="geometry">
                        <mxPoint x="-8" y="-12" as="offset"/>
                    </mxGeometry>
                </mxCell>
                <mxCell id="375" style="edgeStyle=none;html=1;entryX=0;entryY=0.5;entryDx=0;entryDy=0;" parent="1" source="371" target="374" edge="1">
                    <mxGeometry relative="1" as="geometry"/>
                </mxCell>
                <mxCell id="371" value="+" style="ellipse;whiteSpace=wrap;html=1;aspect=fixed;fontSize=20;" parent="1" vertex="1">
                    <mxGeometry x="370" y="1630" width="40" height="40" as="geometry"/>
                </mxCell>
                <mxCell id="372" value="" style="endArrow=classic;html=1;" parent="1" edge="1">
                    <mxGeometry width="50" height="50" relative="1" as="geometry">
                        <mxPoint x="389.6" y="1710" as="sourcePoint"/>
                        <mxPoint x="389.6" y="1670" as="targetPoint"/>
                    </mxGeometry>
                </mxCell>
                <mxCell id="373" value="&lt;span style=&quot;color: rgb(0, 0, 0);&quot;&gt;$$b$$&lt;/span&gt;" style="edgeLabel;html=1;align=center;verticalAlign=middle;resizable=0;points=[];labelBackgroundColor=none;fontSize=12;" parent="372" vertex="1" connectable="0">
                    <mxGeometry x="-0.504" y="1" relative="1" as="geometry">
                        <mxPoint x="6" as="offset"/>
                    </mxGeometry>
                </mxCell>
                <mxCell id="376" style="edgeStyle=none;html=1;" parent="1" source="374" edge="1">
                    <mxGeometry relative="1" as="geometry">
                        <mxPoint x="490" y="1560" as="targetPoint"/>
                        <Array as="points">
                            <mxPoint x="490" y="1650"/>
                        </Array>
                    </mxGeometry>
                </mxCell>
                <mxCell id="378" value="&lt;span style=&quot;color: rgb(0, 0, 0); font-size: 12px;&quot;&gt;$$h_{t}$$&lt;/span&gt;" style="edgeLabel;html=1;align=center;verticalAlign=middle;resizable=0;points=[];labelBackgroundColor=none;" parent="376" vertex="1" connectable="0">
                    <mxGeometry x="0.7618" y="1" relative="1" as="geometry">
                        <mxPoint x="-13" y="7" as="offset"/>
                    </mxGeometry>
                </mxCell>
                <mxCell id="374" value="tanh" style="ellipse;whiteSpace=wrap;html=1;aspect=fixed;fontSize=12;" parent="1" vertex="1">
                    <mxGeometry x="429.99999999999994" y="1630" width="40" height="40" as="geometry"/>
                </mxCell>
                <mxCell id="339" value="" style="rounded=1;whiteSpace=wrap;html=1;fillColor=#d5e8d4;strokeColor=#82b366;opacity=40;" parent="1" vertex="1">
                    <mxGeometry x="220" y="1600" width="280" height="130" as="geometry"/>
                </mxCell>
                <mxCell id="379" style="edgeStyle=none;html=1;entryX=0.5;entryY=1;entryDx=0;entryDy=0;" parent="1" source="381" target="389" edge="1">
                    <mxGeometry relative="1" as="geometry"/>
                </mxCell>
                <mxCell id="381" value="&lt;span style=&quot;color: rgb(0, 0, 0);&quot;&gt;$$x_1$$&lt;/span&gt;" style="ellipse;whiteSpace=wrap;html=1;aspect=fixed;fillColor=#dae8fc;strokeColor=#6c8ebf;" parent="1" vertex="1">
                    <mxGeometry x="320" y="2120" width="40" height="40" as="geometry"/>
                </mxCell>
                <mxCell id="382" style="edgeStyle=none;html=1;entryX=0;entryY=0.5;entryDx=0;entryDy=0;" parent="1" source="384" target="389" edge="1">
                    <mxGeometry relative="1" as="geometry"/>
                </mxCell>
                <mxCell id="384" value="$$h^1_0$$" style="ellipse;whiteSpace=wrap;html=1;aspect=fixed;fillColor=#d5e8d4;strokeColor=#82b366;" parent="1" vertex="1">
                    <mxGeometry x="240" y="2050" width="40" height="40" as="geometry"/>
                </mxCell>
                <mxCell id="385" style="edgeStyle=none;html=1;entryX=0;entryY=0.5;entryDx=0;entryDy=0;" parent="1" source="389" target="394" edge="1">
                    <mxGeometry relative="1" as="geometry"/>
                </mxCell>
                <mxCell id="386" value="" style="edgeStyle=none;html=1;" parent="1" target="404" edge="1">
                    <mxGeometry relative="1" as="geometry">
                        <mxPoint x="340" y="1910" as="sourcePoint"/>
                    </mxGeometry>
                </mxCell>
                <mxCell id="387" value="&lt;span style=&quot;font-family: monospace; font-size: 0px; text-align: start; background-color: rgb(251, 251, 251);&quot;&gt;%3CmxGraphModel%3E%3Croot%3E%3CmxCell%20id%3D%220%22%2F%3E%3CmxCell%20id%3D%221%22%20parent%3D%220%22%2F%3E%3CmxCell%20id%3D%222%22%20value%3D%22%26lt%3Bspan%20style%3D%26quot%3Bcolor%3A%20rgb(0%2C%200%2C%200)%3B%20font-size%3A%2012px%3B%26quot%3B%26gt%3B%24%24U%24%24%26lt%3B%2Fspan%26gt%3B%22%20style%3D%22edgeLabel%3Bhtml%3D1%3Balign%3Dcenter%3BverticalAlign%3Dmiddle%3Bresizable%3D0%3Bpoints%3D%5B%5D%3BlabelBackgroundColor%3Dnone%3B%22%20vertex%3D%221%22%20connectable%3D%220%22%20parent%3D%221%22%3E%3CmxGeometry%20x%3D%22150%22%20y%3D%22659.7142857142859%22%20as%3D%22geometry%22%2F%3E%3C%2FmxCell%3E%3CmxCell%20id%3D%223%22%20value%3D%22%26lt%3Bspan%20style%3D%26quot%3Bcolor%3A%20rgb(0%2C%200%2C%200)%3B%20font-size%3A%2012px%3B%26quot%3B%26gt%3B%24%24U%24%24%26lt%3B%2Fspan%26gt%3B%22%20style%3D%22edgeLabel%3Bhtml%3D1%3Balign%3Dcenter%3BverticalAlign%3Dmiddle%3Bresizable%3D0%3Bpoints%3D%5B%5D%3BlabelBackgroundColor%3Dnone%3B%22%20vertex%3D%221%22%20connectable%3D%220%22%20parent%3D%221%22%3E%3CmxGeometry%20x%3D%22230%22%20y%3D%22660.0042857142857%22%20as%3D%22geometry%22%2F%3E%3C%2FmxCell%3E%3C%2Froot%3E%3C%2FmxGraphModel%3E&lt;/span&gt;" style="edgeLabel;html=1;align=center;verticalAlign=middle;resizable=0;points=[];" parent="386" vertex="1" connectable="0">
                    <mxGeometry x="-0.5262" y="1" relative="1" as="geometry">
                        <mxPoint as="offset"/>
                    </mxGeometry>
                </mxCell>
                <mxCell id="389" value="&lt;span style=&quot;color: rgb(0, 0, 0);&quot;&gt;$$h^1_1$$&lt;/span&gt;" style="rounded=1;whiteSpace=wrap;html=1;aspect=fixed;fillColor=#d5e8d4;strokeColor=#82b366;" parent="1" vertex="1">
                    <mxGeometry x="320" y="2050" width="40" height="40" as="geometry"/>
                </mxCell>
                <mxCell id="390" style="edgeStyle=none;html=1;entryX=0.5;entryY=1;entryDx=0;entryDy=0;" parent="1" source="391" target="394" edge="1">
                    <mxGeometry relative="1" as="geometry"/>
                </mxCell>
                <mxCell id="391" value="&lt;span style=&quot;color: rgb(0, 0, 0);&quot;&gt;$$x_2$$&lt;/span&gt;" style="ellipse;whiteSpace=wrap;html=1;aspect=fixed;fillColor=#dae8fc;strokeColor=#6c8ebf;" parent="1" vertex="1">
                    <mxGeometry x="399.99999999999994" y="2120" width="40" height="40" as="geometry"/>
                </mxCell>
                <mxCell id="392" style="edgeStyle=none;html=1;entryX=0;entryY=0.5;entryDx=0;entryDy=0;" parent="1" source="394" target="399" edge="1">
                    <mxGeometry relative="1" as="geometry"/>
                </mxCell>
                <mxCell id="393" value="" style="edgeStyle=none;html=1;" parent="1" target="405" edge="1">
                    <mxGeometry relative="1" as="geometry">
                        <mxPoint x="420" y="1910" as="sourcePoint"/>
                    </mxGeometry>
                </mxCell>
                <mxCell id="394" value="&lt;span style=&quot;color: rgb(0, 0, 0);&quot;&gt;$$h^1_2$$&lt;/span&gt;" style="rounded=1;whiteSpace=wrap;html=1;aspect=fixed;fillColor=#d5e8d4;strokeColor=#82b366;" parent="1" vertex="1">
                    <mxGeometry x="399.99999999999994" y="2050" width="40" height="40" as="geometry"/>
                </mxCell>
                <mxCell id="395" style="edgeStyle=none;html=1;entryX=0.5;entryY=1;entryDx=0;entryDy=0;" parent="1" source="396" target="399" edge="1">
                    <mxGeometry relative="1" as="geometry"/>
                </mxCell>
                <mxCell id="396" value="&lt;span style=&quot;color: rgb(0, 0, 0);&quot;&gt;$$x_3$$&lt;/span&gt;" style="ellipse;whiteSpace=wrap;html=1;aspect=fixed;fillColor=#dae8fc;strokeColor=#6c8ebf;" parent="1" vertex="1">
                    <mxGeometry x="480" y="2120" width="40" height="40" as="geometry"/>
                </mxCell>
                <mxCell id="397" style="edgeStyle=none;html=1;entryX=0;entryY=0.5;entryDx=0;entryDy=0;" parent="1" source="399" target="403" edge="1">
                    <mxGeometry relative="1" as="geometry"/>
                </mxCell>
                <mxCell id="398" value="" style="edgeStyle=none;html=1;" parent="1" target="406" edge="1">
                    <mxGeometry relative="1" as="geometry">
                        <mxPoint x="500" y="1910" as="sourcePoint"/>
                    </mxGeometry>
                </mxCell>
                <mxCell id="399" value="&lt;span style=&quot;color: rgb(0, 0, 0);&quot;&gt;$$h^1_3$$&lt;/span&gt;" style="rounded=1;whiteSpace=wrap;html=1;aspect=fixed;fillColor=#d5e8d4;strokeColor=#82b366;" parent="1" vertex="1">
                    <mxGeometry x="480" y="2050" width="40" height="40" as="geometry"/>
                </mxCell>
                <mxCell id="400" style="edgeStyle=none;html=1;entryX=0.5;entryY=1;entryDx=0;entryDy=0;" parent="1" source="401" target="403" edge="1">
                    <mxGeometry relative="1" as="geometry"/>
                </mxCell>
                <mxCell id="401" value="&lt;span style=&quot;color: rgb(0, 0, 0);&quot;&gt;$$x_4$$&lt;/span&gt;" style="ellipse;whiteSpace=wrap;html=1;aspect=fixed;fillColor=#dae8fc;strokeColor=#6c8ebf;" parent="1" vertex="1">
                    <mxGeometry x="560" y="2120" width="40" height="40" as="geometry"/>
                </mxCell>
                <mxCell id="402" value="" style="edgeStyle=none;html=1;" parent="1" target="407" edge="1">
                    <mxGeometry relative="1" as="geometry">
                        <mxPoint x="580" y="1910" as="sourcePoint"/>
                    </mxGeometry>
                </mxCell>
                <mxCell id="403" value="&lt;span style=&quot;color: rgb(0, 0, 0);&quot;&gt;$$h^1_4$$&lt;/span&gt;" style="rounded=1;whiteSpace=wrap;html=1;aspect=fixed;fillColor=#d5e8d4;strokeColor=#82b366;" parent="1" vertex="1">
                    <mxGeometry x="560" y="2050" width="40" height="40" as="geometry"/>
                </mxCell>
                <mxCell id="404" value="&lt;span style=&quot;color: rgb(0, 0, 0);&quot;&gt;$$y_1$$&lt;/span&gt;" style="ellipse;whiteSpace=wrap;html=1;aspect=fixed;fillColor=#f8cecc;strokeColor=#b85450;" parent="1" vertex="1">
                    <mxGeometry x="319.99999999999994" y="1840" width="40" height="40" as="geometry"/>
                </mxCell>
                <mxCell id="405" value="&lt;span style=&quot;color: rgb(0, 0, 0);&quot;&gt;$$y_2$$&lt;/span&gt;" style="ellipse;whiteSpace=wrap;html=1;aspect=fixed;fillColor=#f8cecc;strokeColor=#b85450;" parent="1" vertex="1">
                    <mxGeometry x="399.99999999999994" y="1840" width="40" height="40" as="geometry"/>
                </mxCell>
                <mxCell id="406" value="&lt;span style=&quot;color: rgb(0, 0, 0);&quot;&gt;$$y_3$$&lt;/span&gt;" style="ellipse;whiteSpace=wrap;html=1;aspect=fixed;fillColor=#f8cecc;strokeColor=#b85450;" parent="1" vertex="1">
                    <mxGeometry x="480" y="1840" width="40" height="40" as="geometry"/>
                </mxCell>
                <mxCell id="407" value="&lt;span style=&quot;color: rgb(0, 0, 0);&quot;&gt;$$y_4$$&lt;/span&gt;" style="ellipse;whiteSpace=wrap;html=1;aspect=fixed;fillColor=#f8cecc;strokeColor=#b85450;" parent="1" vertex="1">
                    <mxGeometry x="560" y="1840" width="40" height="40" as="geometry"/>
                </mxCell>
                <mxCell id="419" style="edgeStyle=none;html=1;entryX=0.5;entryY=1;entryDx=0;entryDy=0;" parent="1" target="423" edge="1">
                    <mxGeometry relative="1" as="geometry">
                        <mxPoint x="339.66999999999996" y="2050" as="sourcePoint"/>
                    </mxGeometry>
                </mxCell>
                <mxCell id="420" style="edgeStyle=none;html=1;entryX=0;entryY=0.5;entryDx=0;entryDy=0;" parent="1" source="421" target="423" edge="1">
                    <mxGeometry relative="1" as="geometry"/>
                </mxCell>
                <mxCell id="421" value="$$h^2_0$$" style="ellipse;whiteSpace=wrap;html=1;aspect=fixed;fillColor=#d5e8d4;strokeColor=#82b366;" parent="1" vertex="1">
                    <mxGeometry x="240" y="1980" width="40" height="40" as="geometry"/>
                </mxCell>
                <mxCell id="422" style="edgeStyle=none;html=1;entryX=0;entryY=0.5;entryDx=0;entryDy=0;" parent="1" source="423" target="426" edge="1">
                    <mxGeometry relative="1" as="geometry"/>
                </mxCell>
                <mxCell id="423" value="&lt;span style=&quot;color: rgb(0, 0, 0);&quot;&gt;$$h^2_1$$&lt;/span&gt;" style="rounded=1;whiteSpace=wrap;html=1;aspect=fixed;fillColor=#d5e8d4;strokeColor=#82b366;" parent="1" vertex="1">
                    <mxGeometry x="319.99999999999994" y="1980" width="40" height="40" as="geometry"/>
                </mxCell>
                <mxCell id="424" style="edgeStyle=none;html=1;entryX=0.5;entryY=1;entryDx=0;entryDy=0;" parent="1" target="426" edge="1">
                    <mxGeometry relative="1" as="geometry">
                        <mxPoint x="419.67" y="2050" as="sourcePoint"/>
                    </mxGeometry>
                </mxCell>
                <mxCell id="425" style="edgeStyle=none;html=1;entryX=0;entryY=0.5;entryDx=0;entryDy=0;" parent="1" source="426" target="429" edge="1">
                    <mxGeometry relative="1" as="geometry"/>
                </mxCell>
                <mxCell id="426" value="&lt;span style=&quot;color: rgb(0, 0, 0);&quot;&gt;$$h^2_2$$&lt;/span&gt;" style="rounded=1;whiteSpace=wrap;html=1;aspect=fixed;fillColor=#d5e8d4;strokeColor=#82b366;" parent="1" vertex="1">
                    <mxGeometry x="399.99999999999994" y="1980" width="40" height="40" as="geometry"/>
                </mxCell>
                <mxCell id="427" style="edgeStyle=none;html=1;entryX=0.5;entryY=1;entryDx=0;entryDy=0;" parent="1" target="429" edge="1">
                    <mxGeometry relative="1" as="geometry">
                        <mxPoint x="499.6700000000001" y="2050" as="sourcePoint"/>
                    </mxGeometry>
                </mxCell>
                <mxCell id="428" style="edgeStyle=none;html=1;entryX=0;entryY=0.5;entryDx=0;entryDy=0;" parent="1" source="429" target="431" edge="1">
                    <mxGeometry relative="1" as="geometry"/>
                </mxCell>
                <mxCell id="429" value="&lt;span style=&quot;color: rgb(0, 0, 0);&quot;&gt;$$h^2_3$$&lt;/span&gt;" style="rounded=1;whiteSpace=wrap;html=1;aspect=fixed;fillColor=#d5e8d4;strokeColor=#82b366;" parent="1" vertex="1">
                    <mxGeometry x="480" y="1980" width="40" height="40" as="geometry"/>
                </mxCell>
                <mxCell id="430" style="edgeStyle=none;html=1;entryX=0.5;entryY=1;entryDx=0;entryDy=0;" parent="1" target="431" edge="1">
                    <mxGeometry relative="1" as="geometry">
                        <mxPoint x="579.6700000000001" y="2050" as="sourcePoint"/>
                    </mxGeometry>
                </mxCell>
                <mxCell id="431" value="&lt;span style=&quot;color: rgb(0, 0, 0);&quot;&gt;$$h^2_4$$&lt;/span&gt;" style="rounded=1;whiteSpace=wrap;html=1;aspect=fixed;fillColor=#d5e8d4;strokeColor=#82b366;" parent="1" vertex="1">
                    <mxGeometry x="560" y="1980" width="40" height="40" as="geometry"/>
                </mxCell>
                <mxCell id="432" style="edgeStyle=none;html=1;entryX=0.5;entryY=1;entryDx=0;entryDy=0;" parent="1" target="436" edge="1">
                    <mxGeometry relative="1" as="geometry">
                        <mxPoint x="340" y="1980" as="sourcePoint"/>
                    </mxGeometry>
                </mxCell>
                <mxCell id="433" style="edgeStyle=none;html=1;entryX=0;entryY=0.5;entryDx=0;entryDy=0;" parent="1" source="434" target="436" edge="1">
                    <mxGeometry relative="1" as="geometry"/>
                </mxCell>
                <mxCell id="434" value="$$h^3_0$$" style="ellipse;whiteSpace=wrap;html=1;aspect=fixed;fillColor=#d5e8d4;strokeColor=#82b366;" parent="1" vertex="1">
                    <mxGeometry x="240" y="1910" width="40" height="40" as="geometry"/>
                </mxCell>
                <mxCell id="435" style="edgeStyle=none;html=1;entryX=0;entryY=0.5;entryDx=0;entryDy=0;" parent="1" source="436" target="439" edge="1">
                    <mxGeometry relative="1" as="geometry"/>
                </mxCell>
                <mxCell id="436" value="&lt;span style=&quot;color: rgb(0, 0, 0);&quot;&gt;$$h^3_1$$&lt;/span&gt;" style="rounded=1;whiteSpace=wrap;html=1;aspect=fixed;fillColor=#d5e8d4;strokeColor=#82b366;" parent="1" vertex="1">
                    <mxGeometry x="319.99999999999994" y="1910" width="40" height="40" as="geometry"/>
                </mxCell>
                <mxCell id="437" style="edgeStyle=none;html=1;entryX=0.5;entryY=1;entryDx=0;entryDy=0;" parent="1" target="439" edge="1">
                    <mxGeometry relative="1" as="geometry">
                        <mxPoint x="420" y="1980" as="sourcePoint"/>
                    </mxGeometry>
                </mxCell>
                <mxCell id="438" style="edgeStyle=none;html=1;entryX=0;entryY=0.5;entryDx=0;entryDy=0;" parent="1" source="439" target="442" edge="1">
                    <mxGeometry relative="1" as="geometry"/>
                </mxCell>
                <mxCell id="439" value="&lt;span style=&quot;color: rgb(0, 0, 0);&quot;&gt;$$h^3_2$$&lt;/span&gt;" style="rounded=1;whiteSpace=wrap;html=1;aspect=fixed;fillColor=#d5e8d4;strokeColor=#82b366;" parent="1" vertex="1">
                    <mxGeometry x="399.99999999999994" y="1910" width="40" height="40" as="geometry"/>
                </mxCell>
                <mxCell id="440" style="edgeStyle=none;html=1;entryX=0.5;entryY=1;entryDx=0;entryDy=0;" parent="1" target="442" edge="1">
                    <mxGeometry relative="1" as="geometry">
                        <mxPoint x="500" y="1980" as="sourcePoint"/>
                    </mxGeometry>
                </mxCell>
                <mxCell id="441" style="edgeStyle=none;html=1;entryX=0;entryY=0.5;entryDx=0;entryDy=0;" parent="1" source="442" target="444" edge="1">
                    <mxGeometry relative="1" as="geometry"/>
                </mxCell>
                <mxCell id="442" value="&lt;span style=&quot;color: rgb(0, 0, 0);&quot;&gt;$$h^3_3$$&lt;/span&gt;" style="rounded=1;whiteSpace=wrap;html=1;aspect=fixed;fillColor=#d5e8d4;strokeColor=#82b366;" parent="1" vertex="1">
                    <mxGeometry x="480" y="1910" width="40" height="40" as="geometry"/>
                </mxCell>
                <mxCell id="443" style="edgeStyle=none;html=1;entryX=0.5;entryY=1;entryDx=0;entryDy=0;" parent="1" target="444" edge="1">
                    <mxGeometry relative="1" as="geometry">
                        <mxPoint x="580" y="1980" as="sourcePoint"/>
                    </mxGeometry>
                </mxCell>
                <mxCell id="444" value="&lt;span style=&quot;color: rgb(0, 0, 0);&quot;&gt;$$h^3_4$$&lt;/span&gt;" style="rounded=1;whiteSpace=wrap;html=1;aspect=fixed;fillColor=#d5e8d4;strokeColor=#82b366;" parent="1" vertex="1">
                    <mxGeometry x="560" y="1910" width="40" height="40" as="geometry"/>
                </mxCell>
                <mxCell id="445" style="edgeStyle=none;html=1;entryX=0.5;entryY=1;entryDx=0;entryDy=0;" parent="1" source="446" target="449" edge="1">
                    <mxGeometry relative="1" as="geometry"/>
                </mxCell>
                <mxCell id="446" value="&lt;span style=&quot;color: rgb(0, 0, 0);&quot;&gt;$$x$$&lt;/span&gt;" style="ellipse;whiteSpace=wrap;html=1;aspect=fixed;fillColor=#dae8fc;strokeColor=#6c8ebf;" parent="1" vertex="1">
                    <mxGeometry x="100" y="2120" width="40" height="40" as="geometry"/>
                </mxCell>
                <mxCell id="447" value="" style="edgeStyle=none;html=1;" parent="1" target="450" edge="1">
                    <mxGeometry relative="1" as="geometry">
                        <mxPoint x="120" y="1910" as="sourcePoint"/>
                    </mxGeometry>
                </mxCell>
                <mxCell id="448" value="&lt;span style=&quot;font-family: monospace; font-size: 0px; text-align: start; background-color: rgb(251, 251, 251);&quot;&gt;%3CmxGraphModel%3E%3Croot%3E%3CmxCell%20id%3D%220%22%2F%3E%3CmxCell%20id%3D%221%22%20parent%3D%220%22%2F%3E%3CmxCell%20id%3D%222%22%20value%3D%22%26lt%3Bspan%20style%3D%26quot%3Bcolor%3A%20rgb(0%2C%200%2C%200)%3B%20font-size%3A%2012px%3B%26quot%3B%26gt%3B%24%24U%24%24%26lt%3B%2Fspan%26gt%3B%22%20style%3D%22edgeLabel%3Bhtml%3D1%3Balign%3Dcenter%3BverticalAlign%3Dmiddle%3Bresizable%3D0%3Bpoints%3D%5B%5D%3BlabelBackgroundColor%3Dnone%3B%22%20vertex%3D%221%22%20connectable%3D%220%22%20parent%3D%221%22%3E%3CmxGeometry%20x%3D%22150%22%20y%3D%22659.7142857142859%22%20as%3D%22geometry%22%2F%3E%3C%2FmxCell%3E%3CmxCell%20id%3D%223%22%20value%3D%22%26lt%3Bspan%20style%3D%26quot%3Bcolor%3A%20rgb(0%2C%200%2C%200)%3B%20font-size%3A%2012px%3B%26quot%3B%26gt%3B%24%24U%24%24%26lt%3B%2Fspan%26gt%3B%22%20style%3D%22edgeLabel%3Bhtml%3D1%3Balign%3Dcenter%3BverticalAlign%3Dmiddle%3Bresizable%3D0%3Bpoints%3D%5B%5D%3BlabelBackgroundColor%3Dnone%3B%22%20vertex%3D%221%22%20connectable%3D%220%22%20parent%3D%221%22%3E%3CmxGeometry%20x%3D%22230%22%20y%3D%22660.0042857142857%22%20as%3D%22geometry%22%2F%3E%3C%2FmxCell%3E%3C%2Froot%3E%3C%2FmxGraphModel%3E&lt;/span&gt;" style="edgeLabel;html=1;align=center;verticalAlign=middle;resizable=0;points=[];" parent="447" vertex="1" connectable="0">
                    <mxGeometry x="-0.5262" y="1" relative="1" as="geometry">
                        <mxPoint as="offset"/>
                    </mxGeometry>
                </mxCell>
                <mxCell id="449" value="&lt;span style=&quot;color: rgb(0, 0, 0);&quot;&gt;RNN&lt;/span&gt;" style="rounded=1;whiteSpace=wrap;html=1;fillColor=#d5e8d4;strokeColor=#82b366;" parent="1" vertex="1">
                    <mxGeometry x="80" y="2050" width="80" height="40" as="geometry"/>
                </mxCell>
                <mxCell id="450" value="&lt;span style=&quot;color: rgb(0, 0, 0);&quot;&gt;$$y$$&lt;/span&gt;" style="ellipse;whiteSpace=wrap;html=1;aspect=fixed;fillColor=#f8cecc;strokeColor=#b85450;" parent="1" vertex="1">
                    <mxGeometry x="99.99999999999994" y="1840" width="40" height="40" as="geometry"/>
                </mxCell>
                <mxCell id="451" style="edgeStyle=none;html=1;entryX=0.5;entryY=1;entryDx=0;entryDy=0;" parent="1" target="452" edge="1">
                    <mxGeometry relative="1" as="geometry">
                        <mxPoint x="119.66999999999996" y="2050" as="sourcePoint"/>
                    </mxGeometry>
                </mxCell>
                <mxCell id="452" value="&lt;span style=&quot;color: rgb(0, 0, 0);&quot;&gt;RNN&lt;/span&gt;" style="rounded=1;whiteSpace=wrap;html=1;fillColor=#d5e8d4;strokeColor=#82b366;" parent="1" vertex="1">
                    <mxGeometry x="80" y="1980" width="80" height="40" as="geometry"/>
                </mxCell>
                <mxCell id="453" style="edgeStyle=none;html=1;entryX=0.5;entryY=1;entryDx=0;entryDy=0;" parent="1" target="454" edge="1">
                    <mxGeometry relative="1" as="geometry">
                        <mxPoint x="120" y="1980" as="sourcePoint"/>
                    </mxGeometry>
                </mxCell>
                <mxCell id="454" value="&lt;span style=&quot;color: rgb(0, 0, 0);&quot;&gt;RNN&lt;/span&gt;" style="rounded=1;whiteSpace=wrap;html=1;fillColor=#d5e8d4;strokeColor=#82b366;" parent="1" vertex="1">
                    <mxGeometry x="80" y="1910" width="80" height="40" as="geometry"/>
                </mxCell>
                <mxCell id="455" style="edgeStyle=none;html=1;entryX=1;entryY=0.5;entryDx=0;entryDy=0;" parent="1" target="449" edge="1">
                    <mxGeometry relative="1" as="geometry">
                        <mxPoint x="120" y="2050" as="sourcePoint"/>
                        <mxPoint x="200" y="2070" as="targetPoint"/>
                        <Array as="points">
                            <mxPoint x="120" y="2040"/>
                            <mxPoint x="180" y="2040"/>
                            <mxPoint x="180" y="2070"/>
                        </Array>
                    </mxGeometry>
                </mxCell>
                <mxCell id="456" style="edgeStyle=none;html=1;entryX=1;entryY=0.5;entryDx=0;entryDy=0;" parent="1" edge="1">
                    <mxGeometry relative="1" as="geometry">
                        <mxPoint x="120" y="1980" as="sourcePoint"/>
                        <mxPoint x="160" y="2000" as="targetPoint"/>
                        <Array as="points">
                            <mxPoint x="120" y="1970"/>
                            <mxPoint x="180" y="1970"/>
                            <mxPoint x="180" y="2000"/>
                        </Array>
                    </mxGeometry>
                </mxCell>
                <mxCell id="457" style="edgeStyle=none;html=1;entryX=1;entryY=0.5;entryDx=0;entryDy=0;" parent="1" edge="1">
                    <mxGeometry relative="1" as="geometry">
                        <mxPoint x="120" y="1910" as="sourcePoint"/>
                        <mxPoint x="160" y="1930" as="targetPoint"/>
                        <Array as="points">
                            <mxPoint x="120" y="1900"/>
                            <mxPoint x="180" y="1900"/>
                            <mxPoint x="180" y="1930"/>
                        </Array>
                    </mxGeometry>
                </mxCell>
                <mxCell id="458" style="edgeStyle=none;html=1;" parent="1" source="459" edge="1">
                    <mxGeometry relative="1" as="geometry">
                        <mxPoint x="105" y="2430" as="targetPoint"/>
                    </mxGeometry>
                </mxCell>
                <mxCell id="459" value="RNN" style="rounded=1;whiteSpace=wrap;html=1;fontFamily=Comic Sans MS;fontSize=15;" parent="1" vertex="1">
                    <mxGeometry x="80" y="2470" width="50" height="40" as="geometry"/>
                </mxCell>
                <mxCell id="460" value="" style="endArrow=classic;html=1;entryX=0.5;entryY=1;entryDx=0;entryDy=0;" parent="1" target="459" edge="1">
                    <mxGeometry width="50" height="50" relative="1" as="geometry">
                        <mxPoint x="105" y="2550" as="sourcePoint"/>
                        <mxPoint x="160" y="2529" as="targetPoint"/>
                    </mxGeometry>
                </mxCell>
                <mxCell id="461" value="" style="endArrow=classic;html=1;exitX=0.5;exitY=0;exitDx=0;exitDy=0;edgeStyle=orthogonalEdgeStyle;" parent="1" source="459" edge="1">
                    <mxGeometry width="50" height="50" relative="1" as="geometry">
                        <mxPoint x="130.98000000000002" y="2479" as="sourcePoint"/>
                        <mxPoint x="160" y="2490" as="targetPoint"/>
                        <Array as="points">
                            <mxPoint x="105" y="2450"/>
                            <mxPoint x="145" y="2450"/>
                            <mxPoint x="145" y="2490"/>
                        </Array>
                    </mxGeometry>
                </mxCell>
                <mxCell id="509" value="" style="endArrow=none;html=1;exitX=0.596;exitY=-0.004;exitDx=0;exitDy=0;edgeStyle=orthogonalEdgeStyle;endFill=0;startArrow=classic;startFill=1;fillColor=#ffe6cc;strokeColor=#d79b00;exitPerimeter=0;" parent="1" source="459" edge="1">
                    <mxGeometry width="50" height="50" relative="1" as="geometry">
                        <mxPoint x="115" y="2470" as="sourcePoint"/>
                        <mxPoint x="160" y="2495" as="targetPoint"/>
                        <Array as="points">
                            <mxPoint x="110" y="2455"/>
                            <mxPoint x="140" y="2455"/>
                            <mxPoint x="140" y="2495"/>
                        </Array>
                    </mxGeometry>
                </mxCell>
                <mxCell id="513" value="" style="endArrow=none;html=1;entryX=0.5;entryY=1;entryDx=0;entryDy=0;fillColor=#ffe6cc;strokeColor=#d79b00;startArrow=classic;startFill=1;endFill=0;" parent="1" edge="1">
                    <mxGeometry width="50" height="50" relative="1" as="geometry">
                        <mxPoint x="109.87999999999998" y="2550" as="sourcePoint"/>
                        <mxPoint x="109.87999999999998" y="2510" as="targetPoint"/>
                    </mxGeometry>
                </mxCell>
                <mxCell id="517" value="" style="endArrow=none;html=1;entryX=0.5;entryY=1;entryDx=0;entryDy=0;fillColor=#ffe6cc;strokeColor=#d79b00;startArrow=classic;startFill=1;endFill=0;" parent="1" edge="1">
                    <mxGeometry width="50" height="50" relative="1" as="geometry">
                        <mxPoint x="189.88" y="2470" as="sourcePoint"/>
                        <mxPoint x="189.88" y="2430" as="targetPoint"/>
                    </mxGeometry>
                </mxCell>
                <mxCell id="518" style="edgeStyle=none;html=1;" parent="1" source="519" edge="1">
                    <mxGeometry relative="1" as="geometry">
                        <mxPoint x="185" y="2430" as="targetPoint"/>
                    </mxGeometry>
                </mxCell>
                <mxCell id="519" value="RNN" style="rounded=1;whiteSpace=wrap;html=1;fontFamily=Comic Sans MS;fontSize=15;" parent="1" vertex="1">
                    <mxGeometry x="160" y="2470" width="50" height="40" as="geometry"/>
                </mxCell>
                <mxCell id="520" value="" style="endArrow=classic;html=1;entryX=0.5;entryY=1;entryDx=0;entryDy=0;" parent="1" target="519" edge="1">
                    <mxGeometry width="50" height="50" relative="1" as="geometry">
                        <mxPoint x="185" y="2550" as="sourcePoint"/>
                        <mxPoint x="240" y="2529" as="targetPoint"/>
                    </mxGeometry>
                </mxCell>
                <mxCell id="521" value="" style="endArrow=classic;html=1;exitX=0.5;exitY=0;exitDx=0;exitDy=0;edgeStyle=orthogonalEdgeStyle;" parent="1" source="519" edge="1">
                    <mxGeometry width="50" height="50" relative="1" as="geometry">
                        <mxPoint x="210.98000000000002" y="2479" as="sourcePoint"/>
                        <mxPoint x="240" y="2490" as="targetPoint"/>
                        <Array as="points">
                            <mxPoint x="185" y="2450"/>
                            <mxPoint x="225" y="2450"/>
                            <mxPoint x="225" y="2490"/>
                        </Array>
                    </mxGeometry>
                </mxCell>
                <mxCell id="522" value="" style="endArrow=none;html=1;exitX=0.596;exitY=-0.004;exitDx=0;exitDy=0;edgeStyle=orthogonalEdgeStyle;endFill=0;startArrow=classic;startFill=1;fillColor=#ffe6cc;strokeColor=#d79b00;exitPerimeter=0;" parent="1" source="519" edge="1">
                    <mxGeometry width="50" height="50" relative="1" as="geometry">
                        <mxPoint x="195" y="2470" as="sourcePoint"/>
                        <mxPoint x="240" y="2495" as="targetPoint"/>
                        <Array as="points">
                            <mxPoint x="190" y="2455"/>
                            <mxPoint x="220" y="2455"/>
                            <mxPoint x="220" y="2495"/>
                        </Array>
                    </mxGeometry>
                </mxCell>
                <mxCell id="523" value="" style="endArrow=none;html=1;entryX=0.5;entryY=1;entryDx=0;entryDy=0;fillColor=#ffe6cc;strokeColor=#d79b00;startArrow=classic;startFill=1;endFill=0;" parent="1" edge="1">
                    <mxGeometry width="50" height="50" relative="1" as="geometry">
                        <mxPoint x="189.88" y="2550" as="sourcePoint"/>
                        <mxPoint x="189.88" y="2510" as="targetPoint"/>
                    </mxGeometry>
                </mxCell>
                <mxCell id="524" value="" style="endArrow=none;html=1;entryX=0.5;entryY=1;entryDx=0;entryDy=0;fillColor=#ffe6cc;strokeColor=#d79b00;startArrow=classic;startFill=1;endFill=0;" parent="1" edge="1">
                    <mxGeometry width="50" height="50" relative="1" as="geometry">
                        <mxPoint x="269.88" y="2470" as="sourcePoint"/>
                        <mxPoint x="269.88" y="2430" as="targetPoint"/>
                    </mxGeometry>
                </mxCell>
                <mxCell id="525" style="edgeStyle=none;html=1;" parent="1" source="526" edge="1">
                    <mxGeometry relative="1" as="geometry">
                        <mxPoint x="265" y="2430" as="targetPoint"/>
                    </mxGeometry>
                </mxCell>
                <mxCell id="526" value="RNN" style="rounded=1;whiteSpace=wrap;html=1;fontFamily=Comic Sans MS;fontSize=15;" parent="1" vertex="1">
                    <mxGeometry x="240" y="2470" width="50" height="40" as="geometry"/>
                </mxCell>
                <mxCell id="527" value="" style="endArrow=classic;html=1;entryX=0.5;entryY=1;entryDx=0;entryDy=0;" parent="1" target="526" edge="1">
                    <mxGeometry width="50" height="50" relative="1" as="geometry">
                        <mxPoint x="265" y="2550" as="sourcePoint"/>
                        <mxPoint x="320" y="2529" as="targetPoint"/>
                    </mxGeometry>
                </mxCell>
                <mxCell id="528" value="" style="endArrow=classic;html=1;exitX=0.5;exitY=0;exitDx=0;exitDy=0;edgeStyle=orthogonalEdgeStyle;" parent="1" source="526" edge="1">
                    <mxGeometry width="50" height="50" relative="1" as="geometry">
                        <mxPoint x="290.98" y="2479" as="sourcePoint"/>
                        <mxPoint x="320" y="2490" as="targetPoint"/>
                        <Array as="points">
                            <mxPoint x="265" y="2450"/>
                            <mxPoint x="305" y="2450"/>
                            <mxPoint x="305" y="2490"/>
                        </Array>
                    </mxGeometry>
                </mxCell>
                <mxCell id="530" value="" style="endArrow=none;html=1;entryX=0.5;entryY=1;entryDx=0;entryDy=0;fillColor=#ffe6cc;strokeColor=#d79b00;startArrow=classic;startFill=1;endFill=0;" parent="1" edge="1">
                    <mxGeometry width="50" height="50" relative="1" as="geometry">
                        <mxPoint x="269.88" y="2550" as="sourcePoint"/>
                        <mxPoint x="269.88" y="2510" as="targetPoint"/>
                    </mxGeometry>
                </mxCell>
                <mxCell id="531" value="" style="endArrow=none;html=1;entryX=0.5;entryY=1;entryDx=0;entryDy=0;fillColor=#ffe6cc;strokeColor=#d79b00;startArrow=classic;startFill=1;endFill=0;" parent="1" edge="1">
                    <mxGeometry width="50" height="50" relative="1" as="geometry">
                        <mxPoint x="349.88" y="2470" as="sourcePoint"/>
                        <mxPoint x="349.88" y="2430" as="targetPoint"/>
                    </mxGeometry>
                </mxCell>
                <mxCell id="532" style="edgeStyle=none;html=1;" parent="1" source="533" edge="1">
                    <mxGeometry relative="1" as="geometry">
                        <mxPoint x="345" y="2430" as="targetPoint"/>
                    </mxGeometry>
                </mxCell>
                <mxCell id="533" value="RNN" style="rounded=1;whiteSpace=wrap;html=1;fontFamily=Comic Sans MS;fontSize=15;" parent="1" vertex="1">
                    <mxGeometry x="320" y="2470" width="50" height="40" as="geometry"/>
                </mxCell>
                <mxCell id="534" value="" style="endArrow=classic;html=1;entryX=0.5;entryY=1;entryDx=0;entryDy=0;" parent="1" target="533" edge="1">
                    <mxGeometry width="50" height="50" relative="1" as="geometry">
                        <mxPoint x="345" y="2550" as="sourcePoint"/>
                        <mxPoint x="400" y="2529" as="targetPoint"/>
                    </mxGeometry>
                </mxCell>
                <mxCell id="535" value="" style="endArrow=classic;html=1;exitX=0.5;exitY=0;exitDx=0;exitDy=0;edgeStyle=orthogonalEdgeStyle;" parent="1" source="533" edge="1">
                    <mxGeometry width="50" height="50" relative="1" as="geometry">
                        <mxPoint x="370.98" y="2479" as="sourcePoint"/>
                        <mxPoint x="400" y="2490" as="targetPoint"/>
                        <Array as="points">
                            <mxPoint x="345" y="2450"/>
                            <mxPoint x="385" y="2450"/>
                            <mxPoint x="385" y="2490"/>
                        </Array>
                    </mxGeometry>
                </mxCell>
                <mxCell id="536" value="" style="endArrow=none;html=1;exitX=0.596;exitY=-0.004;exitDx=0;exitDy=0;edgeStyle=orthogonalEdgeStyle;endFill=0;startArrow=classic;startFill=1;fillColor=#ffe6cc;strokeColor=#d79b00;exitPerimeter=0;" parent="1" source="533" edge="1">
                    <mxGeometry width="50" height="50" relative="1" as="geometry">
                        <mxPoint x="355" y="2470" as="sourcePoint"/>
                        <mxPoint x="400" y="2495" as="targetPoint"/>
                        <Array as="points">
                            <mxPoint x="350" y="2455"/>
                            <mxPoint x="380" y="2455"/>
                            <mxPoint x="380" y="2495"/>
                        </Array>
                    </mxGeometry>
                </mxCell>
                <mxCell id="537" value="" style="endArrow=none;html=1;entryX=0.5;entryY=1;entryDx=0;entryDy=0;fillColor=#ffe6cc;strokeColor=#d79b00;startArrow=classic;startFill=1;endFill=0;" parent="1" edge="1">
                    <mxGeometry width="50" height="50" relative="1" as="geometry">
                        <mxPoint x="349.88" y="2550" as="sourcePoint"/>
                        <mxPoint x="349.88" y="2510" as="targetPoint"/>
                    </mxGeometry>
                </mxCell>
                <mxCell id="538" value="" style="endArrow=none;html=1;entryX=0.5;entryY=1;entryDx=0;entryDy=0;fillColor=#ffe6cc;strokeColor=#d79b00;startArrow=classic;startFill=1;endFill=0;" parent="1" edge="1">
                    <mxGeometry width="50" height="50" relative="1" as="geometry">
                        <mxPoint x="429.88" y="2470" as="sourcePoint"/>
                        <mxPoint x="429.88" y="2430" as="targetPoint"/>
                    </mxGeometry>
                </mxCell>
                <mxCell id="539" style="edgeStyle=none;html=1;" parent="1" source="540" edge="1">
                    <mxGeometry relative="1" as="geometry">
                        <mxPoint x="425" y="2430" as="targetPoint"/>
                    </mxGeometry>
                </mxCell>
                <mxCell id="540" value="RNN" style="rounded=1;whiteSpace=wrap;html=1;fontFamily=Comic Sans MS;fontSize=15;" parent="1" vertex="1">
                    <mxGeometry x="400" y="2470" width="50" height="40" as="geometry"/>
                </mxCell>
                <mxCell id="541" value="" style="endArrow=classic;html=1;entryX=0.5;entryY=1;entryDx=0;entryDy=0;" parent="1" target="540" edge="1">
                    <mxGeometry width="50" height="50" relative="1" as="geometry">
                        <mxPoint x="425" y="2550" as="sourcePoint"/>
                        <mxPoint x="480" y="2529" as="targetPoint"/>
                    </mxGeometry>
                </mxCell>
                <mxCell id="542" value="" style="endArrow=classic;html=1;exitX=0.5;exitY=0;exitDx=0;exitDy=0;edgeStyle=orthogonalEdgeStyle;" parent="1" source="540" edge="1">
                    <mxGeometry width="50" height="50" relative="1" as="geometry">
                        <mxPoint x="450.98" y="2479" as="sourcePoint"/>
                        <mxPoint x="480" y="2490" as="targetPoint"/>
                        <Array as="points">
                            <mxPoint x="425" y="2450"/>
                            <mxPoint x="465" y="2450"/>
                            <mxPoint x="465" y="2490"/>
                        </Array>
                    </mxGeometry>
                </mxCell>
                <mxCell id="543" value="" style="endArrow=none;html=1;exitX=0.596;exitY=-0.004;exitDx=0;exitDy=0;edgeStyle=orthogonalEdgeStyle;endFill=0;startArrow=classic;startFill=1;fillColor=#ffe6cc;strokeColor=#d79b00;exitPerimeter=0;" parent="1" source="540" edge="1">
                    <mxGeometry width="50" height="50" relative="1" as="geometry">
                        <mxPoint x="435" y="2470" as="sourcePoint"/>
                        <mxPoint x="480" y="2495" as="targetPoint"/>
                        <Array as="points">
                            <mxPoint x="430" y="2455"/>
                            <mxPoint x="460" y="2455"/>
                            <mxPoint x="460" y="2495"/>
                        </Array>
                    </mxGeometry>
                </mxCell>
                <mxCell id="544" value="" style="endArrow=none;html=1;entryX=0.5;entryY=1;entryDx=0;entryDy=0;fillColor=#ffe6cc;strokeColor=#d79b00;startArrow=classic;startFill=1;endFill=0;" parent="1" edge="1">
                    <mxGeometry width="50" height="50" relative="1" as="geometry">
                        <mxPoint x="429.88" y="2550" as="sourcePoint"/>
                        <mxPoint x="429.88" y="2510" as="targetPoint"/>
                    </mxGeometry>
                </mxCell>
                <mxCell id="545" value="" style="endArrow=none;html=1;entryX=0.5;entryY=1;entryDx=0;entryDy=0;fillColor=#ffe6cc;strokeColor=#d79b00;startArrow=classic;startFill=1;endFill=0;" parent="1" edge="1">
                    <mxGeometry width="50" height="50" relative="1" as="geometry">
                        <mxPoint x="509.88" y="2470" as="sourcePoint"/>
                        <mxPoint x="509.88" y="2430" as="targetPoint"/>
                    </mxGeometry>
                </mxCell>
                <mxCell id="546" style="edgeStyle=none;html=1;" parent="1" source="547" edge="1">
                    <mxGeometry relative="1" as="geometry">
                        <mxPoint x="505" y="2430" as="targetPoint"/>
                    </mxGeometry>
                </mxCell>
                <mxCell id="547" value="RNN" style="rounded=1;whiteSpace=wrap;html=1;fontFamily=Comic Sans MS;fontSize=15;" parent="1" vertex="1">
                    <mxGeometry x="480" y="2470" width="50" height="40" as="geometry"/>
                </mxCell>
                <mxCell id="548" value="" style="endArrow=classic;html=1;entryX=0.5;entryY=1;entryDx=0;entryDy=0;" parent="1" target="547" edge="1">
                    <mxGeometry width="50" height="50" relative="1" as="geometry">
                        <mxPoint x="505" y="2550" as="sourcePoint"/>
                        <mxPoint x="560" y="2529" as="targetPoint"/>
                    </mxGeometry>
                </mxCell>
                <mxCell id="549" value="" style="endArrow=classic;html=1;exitX=0.5;exitY=0;exitDx=0;exitDy=0;edgeStyle=orthogonalEdgeStyle;" parent="1" source="547" edge="1">
                    <mxGeometry width="50" height="50" relative="1" as="geometry">
                        <mxPoint x="530.98" y="2479" as="sourcePoint"/>
                        <mxPoint x="560" y="2490" as="targetPoint"/>
                        <Array as="points">
                            <mxPoint x="505" y="2450"/>
                            <mxPoint x="545" y="2450"/>
                            <mxPoint x="545" y="2490"/>
                        </Array>
                    </mxGeometry>
                </mxCell>
                <mxCell id="551" value="" style="endArrow=none;html=1;entryX=0.5;entryY=1;entryDx=0;entryDy=0;fillColor=#ffe6cc;strokeColor=#d79b00;startArrow=classic;startFill=1;endFill=0;" parent="1" edge="1">
                    <mxGeometry width="50" height="50" relative="1" as="geometry">
                        <mxPoint x="509.88" y="2550" as="sourcePoint"/>
                        <mxPoint x="509.88" y="2510" as="targetPoint"/>
                    </mxGeometry>
                </mxCell>
                <mxCell id="552" value="" style="endArrow=none;html=1;entryX=0.5;entryY=1;entryDx=0;entryDy=0;fillColor=#ffe6cc;strokeColor=#d79b00;startArrow=classic;startFill=1;endFill=0;" parent="1" edge="1">
                    <mxGeometry width="50" height="50" relative="1" as="geometry">
                        <mxPoint x="589.88" y="2470" as="sourcePoint"/>
                        <mxPoint x="589.88" y="2430" as="targetPoint"/>
                    </mxGeometry>
                </mxCell>
                <mxCell id="553" style="edgeStyle=none;html=1;" parent="1" source="554" edge="1">
                    <mxGeometry relative="1" as="geometry">
                        <mxPoint x="585" y="2430" as="targetPoint"/>
                    </mxGeometry>
                </mxCell>
                <mxCell id="554" value="RNN" style="rounded=1;whiteSpace=wrap;html=1;fontFamily=Comic Sans MS;fontSize=15;" parent="1" vertex="1">
                    <mxGeometry x="560" y="2470" width="50" height="40" as="geometry"/>
                </mxCell>
                <mxCell id="555" value="" style="endArrow=classic;html=1;entryX=0.5;entryY=1;entryDx=0;entryDy=0;" parent="1" target="554" edge="1">
                    <mxGeometry width="50" height="50" relative="1" as="geometry">
                        <mxPoint x="585" y="2550" as="sourcePoint"/>
                        <mxPoint x="640" y="2529" as="targetPoint"/>
                    </mxGeometry>
                </mxCell>
                <mxCell id="556" value="" style="endArrow=classic;html=1;exitX=0.5;exitY=0;exitDx=0;exitDy=0;edgeStyle=orthogonalEdgeStyle;" parent="1" source="554" edge="1">
                    <mxGeometry width="50" height="50" relative="1" as="geometry">
                        <mxPoint x="610.98" y="2479" as="sourcePoint"/>
                        <mxPoint x="640" y="2490" as="targetPoint"/>
                        <Array as="points">
                            <mxPoint x="585" y="2450"/>
                            <mxPoint x="625" y="2450"/>
                            <mxPoint x="625" y="2490"/>
                        </Array>
                    </mxGeometry>
                </mxCell>
                <mxCell id="557" value="" style="endArrow=none;html=1;exitX=0.596;exitY=-0.004;exitDx=0;exitDy=0;edgeStyle=orthogonalEdgeStyle;endFill=0;startArrow=classic;startFill=1;fillColor=#ffe6cc;strokeColor=#d79b00;exitPerimeter=0;" parent="1" source="554" edge="1">
                    <mxGeometry width="50" height="50" relative="1" as="geometry">
                        <mxPoint x="595" y="2470" as="sourcePoint"/>
                        <mxPoint x="640" y="2495" as="targetPoint"/>
                        <Array as="points">
                            <mxPoint x="590" y="2455"/>
                            <mxPoint x="620" y="2455"/>
                            <mxPoint x="620" y="2495"/>
                        </Array>
                    </mxGeometry>
                </mxCell>
                <mxCell id="558" value="" style="endArrow=none;html=1;entryX=0.5;entryY=1;entryDx=0;entryDy=0;fillColor=#ffe6cc;strokeColor=#d79b00;startArrow=classic;startFill=1;endFill=0;" parent="1" edge="1">
                    <mxGeometry width="50" height="50" relative="1" as="geometry">
                        <mxPoint x="589.88" y="2550" as="sourcePoint"/>
                        <mxPoint x="589.88" y="2510" as="targetPoint"/>
                    </mxGeometry>
                </mxCell>
                <mxCell id="559" value="" style="endArrow=none;html=1;entryX=0.5;entryY=1;entryDx=0;entryDy=0;fillColor=#ffe6cc;strokeColor=#d79b00;startArrow=classic;startFill=1;endFill=0;" parent="1" edge="1">
                    <mxGeometry width="50" height="50" relative="1" as="geometry">
                        <mxPoint x="669.88" y="2470" as="sourcePoint"/>
                        <mxPoint x="669.88" y="2430" as="targetPoint"/>
                    </mxGeometry>
                </mxCell>
                <mxCell id="560" style="edgeStyle=none;html=1;" parent="1" source="561" edge="1">
                    <mxGeometry relative="1" as="geometry">
                        <mxPoint x="665" y="2430" as="targetPoint"/>
                    </mxGeometry>
                </mxCell>
                <mxCell id="561" value="RNN" style="rounded=1;whiteSpace=wrap;html=1;fontFamily=Comic Sans MS;fontSize=15;" parent="1" vertex="1">
                    <mxGeometry x="640" y="2470" width="50" height="40" as="geometry"/>
                </mxCell>
                <mxCell id="562" value="" style="endArrow=classic;html=1;entryX=0.5;entryY=1;entryDx=0;entryDy=0;" parent="1" target="561" edge="1">
                    <mxGeometry width="50" height="50" relative="1" as="geometry">
                        <mxPoint x="665" y="2550" as="sourcePoint"/>
                        <mxPoint x="720" y="2529" as="targetPoint"/>
                    </mxGeometry>
                </mxCell>
                <mxCell id="563" value="" style="endArrow=classic;html=1;exitX=0.5;exitY=0;exitDx=0;exitDy=0;edgeStyle=orthogonalEdgeStyle;" parent="1" source="561" edge="1">
                    <mxGeometry width="50" height="50" relative="1" as="geometry">
                        <mxPoint x="690.98" y="2479" as="sourcePoint"/>
                        <mxPoint x="720" y="2490" as="targetPoint"/>
                        <Array as="points">
                            <mxPoint x="665" y="2450"/>
                            <mxPoint x="705" y="2450"/>
                            <mxPoint x="705" y="2490"/>
                        </Array>
                    </mxGeometry>
                </mxCell>
                <mxCell id="564" value="" style="endArrow=none;html=1;exitX=0.596;exitY=-0.004;exitDx=0;exitDy=0;edgeStyle=orthogonalEdgeStyle;endFill=0;startArrow=classic;startFill=1;fillColor=#ffe6cc;strokeColor=#d79b00;exitPerimeter=0;" parent="1" source="561" edge="1">
                    <mxGeometry width="50" height="50" relative="1" as="geometry">
                        <mxPoint x="675" y="2470" as="sourcePoint"/>
                        <mxPoint x="720" y="2495" as="targetPoint"/>
                        <Array as="points">
                            <mxPoint x="670" y="2455"/>
                            <mxPoint x="700" y="2455"/>
                            <mxPoint x="700" y="2495"/>
                        </Array>
                    </mxGeometry>
                </mxCell>
                <mxCell id="565" value="" style="endArrow=none;html=1;entryX=0.5;entryY=1;entryDx=0;entryDy=0;fillColor=#ffe6cc;strokeColor=#d79b00;startArrow=classic;startFill=1;endFill=0;" parent="1" edge="1">
                    <mxGeometry width="50" height="50" relative="1" as="geometry">
                        <mxPoint x="669.88" y="2550" as="sourcePoint"/>
                        <mxPoint x="669.88" y="2510" as="targetPoint"/>
                    </mxGeometry>
                </mxCell>
                <mxCell id="566" value="" style="endArrow=none;html=1;entryX=0.5;entryY=1;entryDx=0;entryDy=0;fillColor=#ffe6cc;strokeColor=#d79b00;startArrow=classic;startFill=1;endFill=0;" parent="1" edge="1">
                    <mxGeometry width="50" height="50" relative="1" as="geometry">
                        <mxPoint x="749.88" y="2470" as="sourcePoint"/>
                        <mxPoint x="749.88" y="2430" as="targetPoint"/>
                    </mxGeometry>
                </mxCell>
                <mxCell id="567" style="edgeStyle=none;html=1;" parent="1" source="568" edge="1">
                    <mxGeometry relative="1" as="geometry">
                        <mxPoint x="745" y="2430" as="targetPoint"/>
                    </mxGeometry>
                </mxCell>
                <mxCell id="568" value="RNN" style="rounded=1;whiteSpace=wrap;html=1;fontFamily=Comic Sans MS;fontSize=15;" parent="1" vertex="1">
                    <mxGeometry x="720" y="2470" width="50" height="40" as="geometry"/>
                </mxCell>
                <mxCell id="569" value="" style="endArrow=classic;html=1;entryX=0.5;entryY=1;entryDx=0;entryDy=0;" parent="1" target="568" edge="1">
                    <mxGeometry width="50" height="50" relative="1" as="geometry">
                        <mxPoint x="745" y="2550" as="sourcePoint"/>
                        <mxPoint x="800" y="2529" as="targetPoint"/>
                    </mxGeometry>
                </mxCell>
                <mxCell id="570" value="" style="endArrow=classic;html=1;exitX=0.5;exitY=0;exitDx=0;exitDy=0;edgeStyle=orthogonalEdgeStyle;" parent="1" source="568" edge="1">
                    <mxGeometry width="50" height="50" relative="1" as="geometry">
                        <mxPoint x="770.98" y="2479" as="sourcePoint"/>
                        <mxPoint x="800" y="2490" as="targetPoint"/>
                        <Array as="points">
                            <mxPoint x="745" y="2450"/>
                            <mxPoint x="785" y="2450"/>
                            <mxPoint x="785" y="2490"/>
                        </Array>
                    </mxGeometry>
                </mxCell>
                <mxCell id="571" value="" style="endArrow=none;html=1;exitX=0.596;exitY=-0.004;exitDx=0;exitDy=0;edgeStyle=orthogonalEdgeStyle;endFill=0;startArrow=classic;startFill=1;fillColor=#ffe6cc;strokeColor=#d79b00;exitPerimeter=0;" parent="1" source="568" edge="1">
                    <mxGeometry width="50" height="50" relative="1" as="geometry">
                        <mxPoint x="755" y="2470" as="sourcePoint"/>
                        <mxPoint x="800" y="2495" as="targetPoint"/>
                        <Array as="points">
                            <mxPoint x="750" y="2455"/>
                            <mxPoint x="780" y="2455"/>
                            <mxPoint x="780" y="2495"/>
                        </Array>
                    </mxGeometry>
                </mxCell>
                <mxCell id="572" value="" style="endArrow=none;html=1;entryX=0.5;entryY=1;entryDx=0;entryDy=0;fillColor=#ffe6cc;strokeColor=#d79b00;startArrow=classic;startFill=1;endFill=0;" parent="1" edge="1">
                    <mxGeometry width="50" height="50" relative="1" as="geometry">
                        <mxPoint x="749.88" y="2550" as="sourcePoint"/>
                        <mxPoint x="749.88" y="2510" as="targetPoint"/>
                    </mxGeometry>
                </mxCell>
                <mxCell id="601" value="" style="endArrow=none;html=1;entryX=0.5;entryY=1;entryDx=0;entryDy=0;fillColor=#ffe6cc;strokeColor=#d79b00;startArrow=classic;startFill=1;endFill=0;" edge="1" parent="1">
                    <mxGeometry width="50" height="50" relative="1" as="geometry">
                        <mxPoint x="109.88" y="2260" as="sourcePoint"/>
                        <mxPoint x="109.88" y="2220" as="targetPoint"/>
                    </mxGeometry>
                </mxCell>
                <mxCell id="602" style="edgeStyle=none;html=1;" edge="1" parent="1" source="603">
                    <mxGeometry relative="1" as="geometry">
                        <mxPoint x="105" y="2220" as="targetPoint"/>
                    </mxGeometry>
                </mxCell>
                <mxCell id="603" value="RNN" style="rounded=1;whiteSpace=wrap;html=1;fontFamily=Comic Sans MS;fontSize=15;" vertex="1" parent="1">
                    <mxGeometry x="65" y="2260" width="80" height="40" as="geometry"/>
                </mxCell>
                <mxCell id="604" value="" style="endArrow=classic;html=1;entryX=0.5;entryY=1;entryDx=0;entryDy=0;" edge="1" parent="1" target="603">
                    <mxGeometry width="50" height="50" relative="1" as="geometry">
                        <mxPoint x="105" y="2340" as="sourcePoint"/>
                        <mxPoint x="160" y="2319" as="targetPoint"/>
                    </mxGeometry>
                </mxCell>
                <mxCell id="605" value="" style="endArrow=classic;html=1;exitX=0.5;exitY=0;exitDx=0;exitDy=0;edgeStyle=orthogonalEdgeStyle;" edge="1" parent="1" source="603">
                    <mxGeometry width="50" height="50" relative="1" as="geometry">
                        <mxPoint x="130.98000000000002" y="2269" as="sourcePoint"/>
                        <mxPoint x="180" y="2280" as="targetPoint"/>
                        <Array as="points">
                            <mxPoint x="105" y="2240"/>
                            <mxPoint x="160" y="2240"/>
                            <mxPoint x="160" y="2280"/>
                        </Array>
                    </mxGeometry>
                </mxCell>
                <mxCell id="606" value="" style="endArrow=none;html=1;exitX=0.563;exitY=-0.006;exitDx=0;exitDy=0;edgeStyle=orthogonalEdgeStyle;endFill=0;startArrow=classic;startFill=1;fillColor=#ffe6cc;strokeColor=#d79b00;exitPerimeter=0;" edge="1" parent="1" source="603">
                    <mxGeometry width="50" height="50" relative="1" as="geometry">
                        <mxPoint x="177.66999999999996" y="2254.83" as="sourcePoint"/>
                        <mxPoint x="180" y="2285" as="targetPoint"/>
                        <Array as="points">
                            <mxPoint x="110" y="2245"/>
                            <mxPoint x="155" y="2245"/>
                            <mxPoint x="155" y="2285"/>
                        </Array>
                    </mxGeometry>
                </mxCell>
                <mxCell id="607" value="" style="endArrow=none;html=1;entryX=0.5;entryY=1;entryDx=0;entryDy=0;fillColor=#ffe6cc;strokeColor=#d79b00;startArrow=classic;startFill=1;endFill=0;" edge="1" parent="1">
                    <mxGeometry width="50" height="50" relative="1" as="geometry">
                        <mxPoint x="109.87999999999998" y="2340" as="sourcePoint"/>
                        <mxPoint x="109.87999999999998" y="2300" as="targetPoint"/>
                    </mxGeometry>
                </mxCell>
                <mxCell id="670" value="" style="endArrow=none;html=1;entryX=0.5;entryY=1;entryDx=0;entryDy=0;fillColor=#ffe6cc;strokeColor=#d79b00;startArrow=classic;startFill=1;endFill=0;" edge="1" parent="1">
                    <mxGeometry width="50" height="50" relative="1" as="geometry">
                        <mxPoint x="224.88" y="2260" as="sourcePoint"/>
                        <mxPoint x="224.88" y="2220" as="targetPoint"/>
                    </mxGeometry>
                </mxCell>
                <mxCell id="671" style="edgeStyle=none;html=1;" edge="1" parent="1" source="672">
                    <mxGeometry relative="1" as="geometry">
                        <mxPoint x="220" y="2220" as="targetPoint"/>
                    </mxGeometry>
                </mxCell>
                <mxCell id="672" value="RNN" style="rounded=1;whiteSpace=wrap;html=1;fontFamily=Comic Sans MS;fontSize=15;" vertex="1" parent="1">
                    <mxGeometry x="180" y="2260" width="80" height="40" as="geometry"/>
                </mxCell>
                <mxCell id="673" value="" style="endArrow=classic;html=1;entryX=0.5;entryY=1;entryDx=0;entryDy=0;" edge="1" parent="1" target="672">
                    <mxGeometry width="50" height="50" relative="1" as="geometry">
                        <mxPoint x="220" y="2340" as="sourcePoint"/>
                        <mxPoint x="275" y="2319" as="targetPoint"/>
                    </mxGeometry>
                </mxCell>
                <mxCell id="674" value="" style="endArrow=classic;html=1;exitX=0.5;exitY=0;exitDx=0;exitDy=0;edgeStyle=orthogonalEdgeStyle;" edge="1" parent="1" source="672">
                    <mxGeometry width="50" height="50" relative="1" as="geometry">
                        <mxPoint x="245.98000000000002" y="2269" as="sourcePoint"/>
                        <mxPoint x="295" y="2280" as="targetPoint"/>
                        <Array as="points">
                            <mxPoint x="220" y="2240"/>
                            <mxPoint x="275" y="2240"/>
                            <mxPoint x="275" y="2280"/>
                        </Array>
                    </mxGeometry>
                </mxCell>
                <mxCell id="675" value="" style="endArrow=none;html=1;exitX=0.563;exitY=-0.006;exitDx=0;exitDy=0;edgeStyle=orthogonalEdgeStyle;endFill=0;startArrow=classic;startFill=1;fillColor=#ffe6cc;strokeColor=#d79b00;exitPerimeter=0;" edge="1" parent="1" source="672">
                    <mxGeometry width="50" height="50" relative="1" as="geometry">
                        <mxPoint x="292.66999999999996" y="2254.83" as="sourcePoint"/>
                        <mxPoint x="295" y="2285" as="targetPoint"/>
                        <Array as="points">
                            <mxPoint x="225" y="2245"/>
                            <mxPoint x="270" y="2245"/>
                            <mxPoint x="270" y="2285"/>
                        </Array>
                    </mxGeometry>
                </mxCell>
                <mxCell id="676" value="" style="endArrow=none;html=1;entryX=0.5;entryY=1;entryDx=0;entryDy=0;fillColor=#ffe6cc;strokeColor=#d79b00;startArrow=classic;startFill=1;endFill=0;" edge="1" parent="1">
                    <mxGeometry width="50" height="50" relative="1" as="geometry">
                        <mxPoint x="224.88" y="2340" as="sourcePoint"/>
                        <mxPoint x="224.88" y="2300" as="targetPoint"/>
                    </mxGeometry>
                </mxCell>
                <mxCell id="677" value="" style="endArrow=none;html=1;entryX=0.5;entryY=1;entryDx=0;entryDy=0;fillColor=#ffe6cc;strokeColor=#d79b00;startArrow=classic;startFill=1;endFill=0;" edge="1" parent="1">
                    <mxGeometry width="50" height="50" relative="1" as="geometry">
                        <mxPoint x="339.88" y="2260" as="sourcePoint"/>
                        <mxPoint x="339.88" y="2220" as="targetPoint"/>
                    </mxGeometry>
                </mxCell>
                <mxCell id="678" style="edgeStyle=none;html=1;" edge="1" parent="1" source="679">
                    <mxGeometry relative="1" as="geometry">
                        <mxPoint x="335" y="2220" as="targetPoint"/>
                    </mxGeometry>
                </mxCell>
                <mxCell id="679" value="RNN" style="rounded=1;whiteSpace=wrap;html=1;fontFamily=Comic Sans MS;fontSize=15;" vertex="1" parent="1">
                    <mxGeometry x="295" y="2260" width="80" height="40" as="geometry"/>
                </mxCell>
                <mxCell id="680" value="" style="endArrow=classic;html=1;entryX=0.5;entryY=1;entryDx=0;entryDy=0;" edge="1" parent="1" target="679">
                    <mxGeometry width="50" height="50" relative="1" as="geometry">
                        <mxPoint x="335" y="2340" as="sourcePoint"/>
                        <mxPoint x="390" y="2319" as="targetPoint"/>
                    </mxGeometry>
                </mxCell>
                <mxCell id="681" value="" style="endArrow=classic;html=1;exitX=0.5;exitY=0;exitDx=0;exitDy=0;edgeStyle=orthogonalEdgeStyle;" edge="1" parent="1" source="679">
                    <mxGeometry width="50" height="50" relative="1" as="geometry">
                        <mxPoint x="360.98" y="2269" as="sourcePoint"/>
                        <mxPoint x="410" y="2280" as="targetPoint"/>
                        <Array as="points">
                            <mxPoint x="335" y="2240"/>
                            <mxPoint x="390" y="2240"/>
                            <mxPoint x="390" y="2280"/>
                        </Array>
                    </mxGeometry>
                </mxCell>
                <mxCell id="682" value="" style="endArrow=none;html=1;exitX=0.563;exitY=-0.006;exitDx=0;exitDy=0;edgeStyle=orthogonalEdgeStyle;endFill=0;startArrow=classic;startFill=1;fillColor=#ffe6cc;strokeColor=#d79b00;exitPerimeter=0;" edge="1" parent="1" source="679">
                    <mxGeometry width="50" height="50" relative="1" as="geometry">
                        <mxPoint x="407.66999999999996" y="2254.83" as="sourcePoint"/>
                        <mxPoint x="410" y="2285" as="targetPoint"/>
                        <Array as="points">
                            <mxPoint x="340" y="2245"/>
                            <mxPoint x="385" y="2245"/>
                            <mxPoint x="385" y="2285"/>
                        </Array>
                    </mxGeometry>
                </mxCell>
                <mxCell id="683" value="" style="endArrow=none;html=1;entryX=0.5;entryY=1;entryDx=0;entryDy=0;fillColor=#ffe6cc;strokeColor=#d79b00;startArrow=classic;startFill=1;endFill=0;" edge="1" parent="1">
                    <mxGeometry width="50" height="50" relative="1" as="geometry">
                        <mxPoint x="339.88" y="2340" as="sourcePoint"/>
                        <mxPoint x="339.88" y="2300" as="targetPoint"/>
                    </mxGeometry>
                </mxCell>
                <mxCell id="684" value="" style="endArrow=none;html=1;entryX=0.5;entryY=1;entryDx=0;entryDy=0;fillColor=#ffe6cc;strokeColor=#d79b00;startArrow=classic;startFill=1;endFill=0;" edge="1" parent="1">
                    <mxGeometry width="50" height="50" relative="1" as="geometry">
                        <mxPoint x="454.88" y="2260" as="sourcePoint"/>
                        <mxPoint x="454.88" y="2220" as="targetPoint"/>
                    </mxGeometry>
                </mxCell>
                <mxCell id="685" style="edgeStyle=none;html=1;" edge="1" parent="1" source="686">
                    <mxGeometry relative="1" as="geometry">
                        <mxPoint x="450" y="2220" as="targetPoint"/>
                    </mxGeometry>
                </mxCell>
                <mxCell id="686" value="RNN" style="rounded=1;whiteSpace=wrap;html=1;fontFamily=Comic Sans MS;fontSize=15;" vertex="1" parent="1">
                    <mxGeometry x="410" y="2260" width="80" height="40" as="geometry"/>
                </mxCell>
                <mxCell id="687" value="" style="endArrow=classic;html=1;entryX=0.5;entryY=1;entryDx=0;entryDy=0;" edge="1" parent="1" target="686">
                    <mxGeometry width="50" height="50" relative="1" as="geometry">
                        <mxPoint x="450" y="2340" as="sourcePoint"/>
                        <mxPoint x="505" y="2319" as="targetPoint"/>
                    </mxGeometry>
                </mxCell>
                <mxCell id="688" value="" style="endArrow=classic;html=1;exitX=0.5;exitY=0;exitDx=0;exitDy=0;edgeStyle=orthogonalEdgeStyle;" edge="1" parent="1" source="686">
                    <mxGeometry width="50" height="50" relative="1" as="geometry">
                        <mxPoint x="475.98" y="2269" as="sourcePoint"/>
                        <mxPoint x="525" y="2280" as="targetPoint"/>
                        <Array as="points">
                            <mxPoint x="450" y="2240"/>
                            <mxPoint x="505" y="2240"/>
                            <mxPoint x="505" y="2280"/>
                        </Array>
                    </mxGeometry>
                </mxCell>
                <mxCell id="689" value="" style="endArrow=none;html=1;exitX=0.563;exitY=-0.006;exitDx=0;exitDy=0;edgeStyle=orthogonalEdgeStyle;endFill=0;startArrow=classic;startFill=1;fillColor=#ffe6cc;strokeColor=#d79b00;exitPerimeter=0;" edge="1" parent="1" source="686">
                    <mxGeometry width="50" height="50" relative="1" as="geometry">
                        <mxPoint x="522.67" y="2254.83" as="sourcePoint"/>
                        <mxPoint x="525" y="2285" as="targetPoint"/>
                        <Array as="points">
                            <mxPoint x="455" y="2245"/>
                            <mxPoint x="500" y="2245"/>
                            <mxPoint x="500" y="2285"/>
                        </Array>
                    </mxGeometry>
                </mxCell>
                <mxCell id="690" value="" style="endArrow=none;html=1;entryX=0.5;entryY=1;entryDx=0;entryDy=0;fillColor=#ffe6cc;strokeColor=#d79b00;startArrow=classic;startFill=1;endFill=0;" edge="1" parent="1">
                    <mxGeometry width="50" height="50" relative="1" as="geometry">
                        <mxPoint x="454.88" y="2340" as="sourcePoint"/>
                        <mxPoint x="454.88" y="2300" as="targetPoint"/>
                    </mxGeometry>
                </mxCell>
            </root>
        </mxGraphModel>
    </diagram>
</mxfile>